<svg width="178" height="176" viewBox="0 0 178 176" fill="none" xmlns="http://www.w3.org/2000/svg">
<path d="M175.96 88C175.96 135.481 137.145 174 89.2301 174C41.3148 174 2.5 135.481 2.5 88C2.5 40.5191 41.3148 2 89.2301 2C137.145 2 175.96 40.5191 175.96 88Z" stroke="#1A1A1B" stroke-width="4"/>
<path d="M47.4482 103.938L69.5559 82.0117C70.4512 81.1238 71.5141 80.4194 72.6839 79.9388C73.8538 79.4583 75.1076 79.2109 76.3737 79.2109C77.6399 79.2109 78.8937 79.4583 80.0635 79.9388C81.2334 80.4194 82.2963 81.1238 83.1916 82.0117L105.299 103.938M98.8714 97.5625L104.909 91.5742C105.805 90.6863 106.868 89.9819 108.037 89.5013C109.207 89.0208 110.461 88.7734 111.727 88.7734C112.993 88.7734 114.247 89.0208 115.417 89.5013C116.587 89.9819 117.65 90.6863 118.545 91.5742L131.011 103.938M53.8761 119.875H124.583C126.288 119.875 127.923 119.203 129.128 118.008C130.334 116.812 131.011 115.191 131.011 113.5V62.5C131.011 60.8092 130.334 59.1877 129.128 57.9922C127.923 56.7966 126.288 56.125 124.583 56.125H53.8761C52.1713 56.125 50.5364 56.7966 49.3309 57.9922C48.1255 59.1877 47.4482 60.8092 47.4482 62.5V113.5C47.4482 115.191 48.1255 116.812 49.3309 118.008C50.5364 119.203 52.1713 119.875 53.8761 119.875ZM98.8714 72.0625H98.9056V72.0965H98.8714V72.0625ZM100.478 72.0625C100.478 72.4852 100.309 72.8906 100.008 73.1895C99.7063 73.4883 99.2976 73.6562 98.8714 73.6562C98.4452 73.6562 98.0364 73.4883 97.7351 73.1895C97.4337 72.8906 97.2644 72.4852 97.2644 72.0625C97.2644 71.6398 97.4337 71.2344 97.7351 70.9355C98.0364 70.6367 98.4452 70.4688 98.8714 70.4688C99.2976 70.4688 99.7063 70.6367 100.008 70.9355C100.309 71.2344 100.478 71.6398 100.478 72.0625Z" stroke="#1A1A1B" stroke-width="4" stroke-linecap="round" stroke-linejoin="round"/>
</svg>
