<svg width="427" height="701" viewBox="0 0 427 701" fill="none" xmlns="http://www.w3.org/2000/svg">
<rect width="426.283" height="696" rx="25" fill="#1A1A1B"/>
<rect y="306" width="426.283" height="394.69" rx="25" fill="#CCE4C4"/>
<g clip-path="url(#clip0_18_695)">
<g clip-path="url(#clip1_18_695)">
<path d="M3.56162 406.446C2.30892 405.72 1.27103 404.675 0.552485 403.418C-0.166056 402.161 -0.539868 400.735 -0.531292 399.285C-0.522711 397.835 -0.132045 396.412 0.601354 395.158C1.33475 393.905 2.38498 392.866 3.64624 392.145C21.6475 382.182 70.0586 362.616 130.051 397.733C156.038 412.944 174.762 433.198 185.684 457.905C194.69 478.21 195.977 495.98 196.553 504.517C196.704 506.681 195.988 508.82 194.564 510.462C193.139 512.105 191.122 513.117 188.957 513.275C188.93 513.277 188.903 513.279 188.876 513.28C186.682 513.416 184.526 512.684 182.872 511.243C181.218 509.801 180.199 507.766 180.034 505.576C178.928 490.168 175.594 443.388 121.742 411.866C69.1596 381.087 27.353 397.89 11.8461 406.512C10.5836 407.245 9.14848 407.625 7.69104 407.613C6.23359 407.602 4.80734 407.199 3.56162 406.446Z" fill="#1A1A1B"/>
<path d="M40.8838 616.995C40.2798 616.654 39.7224 616.237 39.2251 615.755C2.14692 579.389 12.0524 525.626 12.4795 523.4L12.6196 522.932C13.0194 521.446 22.2285 485.975 46.1716 475.993C57.1304 471.443 68.935 472.748 81.2911 479.941C92.7828 486.632 98.925 495.088 100.177 505.922C101.227 514.783 98.635 523.447 96.143 531.826C90.9791 549.236 89.0095 558.813 104.391 568.867C111.145 573.281 118.17 571.803 122.849 569.784C135.549 564.254 146.049 549.264 148.922 532.377C152.688 510.51 148.506 462.774 105.996 438.026C87.8436 427.457 67.659 423.68 47.6963 427.043C31.1402 429.846 14.6355 437.766 2.49549 448.709C-20.0861 469.107 -32.9992 514.314 -33.1091 514.731C-33.404 515.77 -33.9001 516.743 -34.5691 517.594C-35.2381 518.445 -36.067 519.159 -37.0083 519.694C-37.9496 520.228 -38.9851 520.574 -40.0554 520.71C-41.1257 520.847 -42.21 520.771 -43.2464 520.489C-43.2752 520.481 -43.3039 520.473 -43.3326 520.465C-45.4538 519.884 -47.2515 518.491 -48.3375 516.585C-49.4235 514.679 -49.7106 512.415 -49.1368 510.28C-48.5365 508.224 -34.7937 459.995 -8.69443 436.42C19.6391 410.915 68.6665 397.114 114.43 423.757C135.583 436.072 151.244 455.02 159.761 478.538C166.328 496.798 168.381 517.377 165.348 534.997C161.483 557.494 147.39 577.06 129.495 584.789C117.564 589.941 105.377 589.17 95.2549 582.59C68.918 565.401 75.4323 543.278 80.1854 527.141C85.0485 510.588 86.8204 502.27 72.8371 494.129C65.159 489.659 58.4995 488.669 52.5138 491.165C44.3404 494.586 38.3621 503.892 34.7899 511.092C34.7524 511.167 34.715 511.242 34.6778 511.317C30.159 520.493 27.77 530.548 27.6907 540.727C27.5143 557.079 30.7363 584.189 50.9459 604.018C52.5045 605.522 53.3943 607.589 53.4193 609.766C53.4444 611.942 52.6027 614.05 51.0795 615.624C51.0611 615.643 51.0426 615.662 51.024 615.681C49.7003 616.981 47.9898 617.814 46.1569 618.052C44.324 618.29 42.4708 617.918 40.8838 616.995Z" fill="#1A1A1B"/>
<path d="M-12.2683 580.826C-13.2447 580.256 -14.0941 579.493 -14.7652 578.584C-15.4364 577.675 -15.9153 576.638 -16.1731 575.536C-22.665 546.865 -20.315 520.421 -8.77615 492.377L-8.68633 492.224C-0.674946 473.874 16.649 451.398 41.3757 443.431C59.6235 437.556 78.77 440.339 98.1885 451.687C121.156 465.11 132.828 486.489 132.047 513.507C131.599 525.881 128.895 538.081 124.068 549.51C123.128 551.488 121.449 553.021 119.394 553.777C117.339 554.534 115.074 554.453 113.087 553.553C111.101 552.653 109.554 551.005 108.78 548.966C108.006 546.927 108.069 544.661 108.953 542.658C112.939 533.074 115.147 522.853 115.468 512.498C115.94 491.791 107.327 476.096 89.7842 465.844C74.6246 456.984 60.036 454.678 46.4837 459.06C26.9664 465.355 12.7384 484.31 6.45641 498.682C-3.77219 523.46 -5.82119 546.73 -0.0906184 571.95C0.147212 572.99 0.177316 574.069 -0.00198462 575.124C-0.18129 576.179 -0.56651 577.189 -1.13565 578.097C-1.70479 579.006 -2.4467 579.794 -3.31903 580.418C-4.19136 581.041 -5.17703 581.487 -6.21975 581.731C-6.26106 581.741 -6.30245 581.75 -6.34393 581.759C-8.37051 582.193 -10.4818 581.861 -12.2683 580.826Z" fill="#1A1A1B"/>
<path d="M50.1921 527.342C54.0889 531.604 60.7338 531.872 65.0337 527.941C69.3337 524.009 69.6606 517.367 65.7638 513.105C61.867 508.843 55.2222 508.575 50.9222 512.506C46.6222 516.438 46.2953 523.08 50.1921 527.342Z" fill="#1A1A1B"/>
<path d="M128.05 625.591L128.057 625.595C128.157 625.655 128.261 625.708 128.369 625.753L128.05 625.591ZM128.05 625.591C127.796 625.438 127.573 625.234 127.396 624.992C127.219 624.75 127.091 624.473 127.019 624.178L127.018 624.171M128.05 625.591L127.018 624.171M127.018 624.171L124.423 613.524L124.423 613.524M127.018 624.171L124.423 613.524M124.423 613.524C124.35 613.227 124.336 612.916 124.383 612.61C124.43 612.304 124.535 612.01 124.695 611.745C124.854 611.479 125.063 611.249 125.309 611.066C125.556 610.883 125.833 610.751 126.127 610.677L126.127 610.677M124.423 613.524L126.127 610.677M126.127 610.677L192.9 593.851L192.9 593.851M126.127 610.677L192.9 593.851M192.9 593.851C193.194 593.777 193.497 593.762 193.793 593.806C194.089 593.85 194.373 593.953 194.629 594.107C194.885 594.262 195.108 594.467 195.287 594.71C195.465 594.954 195.595 595.232 195.667 595.53L195.667 595.53M192.9 593.851L195.667 595.53M195.667 595.53L198.262 606.176L198.262 606.176M195.667 595.53L198.262 606.176M198.262 606.176C198.408 606.778 198.312 607.419 197.99 607.956C197.667 608.493 197.15 608.875 196.558 609.024C196.557 609.024 196.557 609.024 196.557 609.024L129.785 625.851L129.778 625.852M198.262 606.176L129.778 625.852M129.778 625.852C129.306 625.973 128.813 625.937 128.369 625.753L129.778 625.852Z" fill="#CCE4C4" stroke="#1A1A1B" stroke-width="5"/>
<path d="M176.214 612.78L172.819 598.849C172.539 597.701 172.724 596.486 173.334 595.471C173.943 594.456 174.927 593.724 176.069 593.436L216.9 579.4C218.042 579.112 219.248 579.292 220.253 579.9C221.258 580.509 221.98 581.495 222.26 582.643L229.431 605.794C229.711 606.942 229.525 608.157 228.916 609.172C228.306 610.187 227.323 610.919 226.181 611.207L181.574 616.024C180.432 616.311 179.226 616.131 178.221 615.523C177.216 614.915 176.494 613.928 176.214 612.78Z" fill="#1A1A1B"/>
<path d="M211.854 655.133L214.167 654.186L211.854 655.133C212.088 655.703 212.088 656.349 211.85 656.929C211.85 656.929 211.85 656.93 211.849 656.93L176.871 741.539C176.871 741.54 176.871 741.54 176.87 741.54C176.63 742.119 176.173 742.576 175.606 742.814C175.039 743.051 174.409 743.052 173.852 742.821L163.795 738.652C163.238 738.421 162.793 737.974 162.559 737.405C162.326 736.835 162.325 736.189 162.564 735.609L197.543 650.998C197.784 650.419 198.241 649.962 198.808 649.725C199.374 649.487 200.004 649.487 200.561 649.716L210.62 653.887C211.176 654.118 211.621 654.565 211.854 655.133Z" fill="#CCE4C4" stroke="#1A1A1B" stroke-width="5"/>
<path d="M235.857 665.275L238.169 664.328L235.857 665.275C236.09 665.845 236.091 666.491 235.853 667.071C235.852 667.071 235.852 667.072 235.852 667.072L200.874 751.681C200.873 751.681 200.873 751.682 200.873 751.682C200.633 752.261 200.176 752.718 199.609 752.956C199.042 753.193 198.412 753.194 197.854 752.963L187.797 748.794C187.24 748.562 186.795 748.116 186.561 747.547L184.249 748.494L186.561 747.547C186.328 746.977 186.327 746.331 186.566 745.751L221.545 661.14C221.786 660.561 222.243 660.104 222.81 659.866C223.376 659.629 224.006 659.628 224.563 659.858L234.623 664.029C235.179 664.26 235.624 664.706 235.857 665.275Z" fill="#CCE4C4" stroke="#1A1A1B" stroke-width="5"/>
<path d="M257.477 553.987C277.629 562.341 300.779 552.632 309.184 532.301C317.589 511.97 308.067 488.716 287.915 480.362C267.763 472.007 244.613 481.716 236.208 502.047C227.803 522.378 237.325 545.632 257.477 553.987Z" fill="#1A1A1B"/>
<path d="M252.002 727.295L270.012 623.857L279.26 601.487C279.863 600.028 279.867 598.39 279.271 596.934C278.675 595.478 277.527 594.323 276.081 593.723L255.838 585.331L261.785 570.947C262.084 570.224 262.239 569.45 262.241 568.669C262.243 567.887 262.092 567.114 261.796 566.393C261.501 565.672 261.067 565.018 260.52 564.467C259.973 563.916 259.322 563.48 258.606 563.183L247.698 558.66C246.981 558.363 246.213 558.212 245.437 558.214C244.661 558.216 243.892 558.372 243.174 558.673C242.457 558.974 241.804 559.414 241.254 559.968C240.704 560.522 240.267 561.179 239.968 561.902L234.022 576.287L213.779 567.895C212.333 567.295 210.706 567.3 209.256 567.908C207.807 568.516 206.654 569.677 206.05 571.136L157.4 688.817C157.108 689.522 156.954 690.277 156.947 691.04C156.708 692.318 156.899 693.637 157.49 694.788C158.082 695.94 159.04 696.857 160.211 697.394L244.534 735.721C249.588 737.975 254.679 732.231 252.002 727.295Z" fill="#1A1A1B"/>
<path d="M267.64 530.398C265.413 529.4 262.64 528.158 261.138 525.67C260.699 524.91 260.431 524.061 260.352 523.183C260.273 522.306 260.386 521.421 260.683 520.59C260.883 519.994 261.217 519.453 261.659 519.008C262.1 518.563 262.638 518.226 263.229 518.024C264.757 517.53 266.499 517.989 268.055 519.25L271.824 504.919L273.253 505.292L268.821 522.14L267.909 521.15C266.851 520.002 265.183 518.95 263.675 519.439C263.298 519.574 262.957 519.795 262.678 520.084C262.399 520.373 262.189 520.723 262.066 521.106C261.848 521.726 261.766 522.385 261.824 523.038C261.882 523.691 262.079 524.324 262.402 524.892C263.571 526.829 265.741 527.916 268.247 529.039L267.64 530.398Z" fill="#CCE4C4"/>
<path d="M264.66 503.32L257.316 500.275L256.748 501.651L264.091 504.695L264.66 503.32Z" fill="#CCE4C4"/>
<path d="M287.841 512.93L280.497 509.885L279.928 511.261L287.272 514.305L287.841 512.93Z" fill="#CCE4C4"/>
<path d="M250.579 480.133C245.736 473.483 245.792 464.7 248.86 457.263C250.495 453.298 252.967 449.736 256.103 446.823C259.24 443.911 262.966 441.718 267.022 440.399C276.106 437.341 286.175 438.176 295.159 441.052C306.03 444.533 315.517 451.165 324.337 458.267C333.78 465.871 342.671 474.198 352.76 480.963C362.549 487.528 373.164 492.176 384.953 493.439C395.833 494.604 407.764 493.64 417.763 498.809C426.399 503.274 430.711 512.099 432.213 521.417C435.197 539.915 427.737 559.991 435.715 577.673C439.165 585.318 445.523 590.769 452.127 595.611C458.461 600.255 465.52 604.474 470.544 610.641C475.932 617.253 477.224 626.019 472.811 633.621C467.799 642.254 458.096 647.45 448.775 649.878C438.991 652.363 428.792 652.622 418.92 650.638C409.048 648.653 399.752 644.475 391.708 638.407C374.953 625.554 365.734 604.477 346.044 595.233C335.06 590.076 322.763 588.583 311.778 583.431C304.165 579.861 297.01 573.505 294.013 565.443C292.544 561.643 292.378 557.453 293.54 553.534C293.959 552.172 291.918 551.311 291.495 552.686C288.862 561.228 292.351 569.791 298.131 576.1C301.179 579.407 304.741 582.193 308.68 584.35C313.906 587.232 319.731 588.97 325.434 590.628C331.462 592.38 337.56 593.988 343.343 596.468C348.612 598.752 353.479 601.874 357.758 605.716C365.999 613.031 372.38 622.144 379.789 630.252C386.961 638.1 395.205 644.541 405.028 648.688C414.501 652.671 424.731 654.532 435.011 654.143C445.135 653.76 455.542 651.238 464.091 645.566C472.106 640.248 478.714 631.652 477.659 621.541C476.832 613.616 471.506 607.571 465.604 602.762C459.061 597.431 451.679 593.175 445.521 587.361C442.273 584.392 439.639 580.809 437.765 576.813C435.843 572.313 434.714 567.508 434.428 562.61C433.648 552.64 435.249 542.708 435.242 532.74C435.235 523.507 434.051 513.713 428.864 505.874C426.064 501.691 422.175 498.364 417.62 496.257C412.592 493.898 407.007 492.973 401.518 492.45C395.708 491.896 389.861 491.787 384.064 491.091C377.958 490.36 372.004 488.692 366.408 486.145C354.893 480.922 345.063 472.748 335.47 464.64C318.665 450.434 299.869 434.893 276.468 436.349C267.35 436.916 258.352 440.48 252.263 447.534C246.876 453.775 243.718 462.351 244.626 470.623C245.052 474.555 246.495 478.301 248.81 481.487C249.654 482.645 251.42 481.288 250.579 480.133Z" fill="#1A1A1B"/>
<path d="M259.369 623.265L261.681 622.319L259.369 623.265C259.602 623.835 259.603 624.481 259.364 625.061C259.364 625.062 259.364 625.062 259.364 625.062L235.123 683.699C235.123 683.699 235.122 683.699 235.122 683.7C234.882 684.279 234.425 684.735 233.858 684.973C233.291 685.211 232.661 685.211 232.104 684.981L222.046 680.811C221.489 680.58 221.044 680.133 220.811 679.564L218.498 680.511L220.811 679.564C220.577 678.995 220.577 678.348 220.815 677.768L245.057 619.13C245.298 618.551 245.754 618.094 246.322 617.856C246.888 617.619 247.518 617.618 248.075 617.848L258.134 622.019C258.691 622.25 259.136 622.697 259.369 623.265Z" stroke="#1A1A1B" stroke-width="5"/>
<path d="M271.913 478.308C271.468 480.017 271.507 481.815 272.024 483.499C272.541 485.182 273.515 486.684 274.838 487.836C276.16 488.987 277.778 489.742 279.508 490.015C281.239 490.289 283.013 490.069 284.631 489.382L283.11 488.218C283.046 491.075 283.754 493.891 285.159 496.366C286.563 498.841 288.611 500.881 291.083 502.27C293.556 503.659 296.36 504.344 299.197 504.251C302.034 504.158 304.796 503.291 307.189 501.743C308.405 500.983 307.058 499.217 305.854 499.97C303.81 501.257 301.465 501.971 299.06 502.038C296.656 502.104 294.282 501.521 292.184 500.349C290.086 499.176 288.342 497.458 287.133 495.371C285.924 493.285 285.294 490.908 285.309 488.487C285.329 488.295 285.299 488.101 285.223 487.924C285.147 487.747 285.027 487.592 284.874 487.476C284.722 487.359 284.542 487.284 284.352 487.257C284.162 487.23 283.968 487.253 283.788 487.323C282.527 487.86 281.142 488.026 279.795 487.801C278.448 487.576 277.194 486.97 276.179 486.053C275.165 485.136 274.432 483.946 274.066 482.623C273.7 481.299 273.716 479.896 274.112 478.577C274.47 477.191 272.269 476.931 271.913 478.308Z" fill="#CCE4C4"/>
</g>
</g>
<path d="M29.725 145.225C29.0917 145.225 28.6083 145.05 28.275 144.7C27.9417 144.35 27.775 143.858 27.775 143.225V129.125C27.775 128.492 27.9417 128.008 28.275 127.675C28.6083 127.325 29.0917 127.15 29.725 127.15C30.3417 127.15 30.8167 127.325 31.15 127.675C31.4833 128.008 31.65 128.492 31.65 129.125V135.05H31.7L38.35 128.1C38.6333 127.8 38.925 127.575 39.225 127.425C39.5417 127.258 39.9 127.175 40.3 127.175C40.8833 127.175 41.3 127.325 41.55 127.625C41.8167 127.925 41.9333 128.275 41.9 128.675C41.8667 129.075 41.6833 129.45 41.35 129.8L34.675 136.625L34.7 134.95L41.7 142.425C42.0833 142.842 42.275 143.267 42.275 143.7C42.2917 144.133 42.15 144.5 41.85 144.8C41.5667 145.083 41.1417 145.225 40.575 145.225C40.0917 145.225 39.7 145.125 39.4 144.925C39.1167 144.725 38.8 144.433 38.45 144.05L31.7 136.95H31.65V143.225C31.65 143.858 31.4833 144.35 31.15 144.7C30.8333 145.05 30.3583 145.225 29.725 145.225ZM49.917 145.275C48.4337 145.275 47.3253 144.867 46.592 144.05C45.8587 143.217 45.492 141.983 45.492 140.35V129.075C45.492 128.442 45.6503 127.967 45.967 127.65C46.3003 127.317 46.7753 127.15 47.392 127.15C47.992 127.15 48.4503 127.317 48.767 127.65C49.1003 127.967 49.267 128.442 49.267 129.075V140.2C49.267 140.883 49.4087 141.392 49.692 141.725C49.992 142.042 50.3837 142.2 50.867 142.2C51.0003 142.2 51.1253 142.192 51.242 142.175C51.3587 142.158 51.4837 142.15 51.617 142.15C51.8837 142.117 52.067 142.2 52.167 142.4C52.2837 142.583 52.342 142.958 52.342 143.525C52.342 144.025 52.242 144.408 52.042 144.675C51.842 144.925 51.5337 145.092 51.117 145.175C50.9503 145.192 50.7587 145.208 50.542 145.225C50.3253 145.258 50.117 145.275 49.917 145.275ZM55.7172 145.2C55.1005 145.2 54.6255 145.025 54.2922 144.675C53.9755 144.308 53.8172 143.8 53.8172 143.15V134.6C53.8172 133.933 53.9755 133.425 54.2922 133.075C54.6255 132.708 55.1005 132.525 55.7172 132.525C56.3172 132.525 56.7755 132.708 57.0922 133.075C57.4255 133.425 57.5922 133.933 57.5922 134.6V143.15C57.5922 143.8 57.4339 144.308 57.1172 144.675C56.8005 145.025 56.3339 145.2 55.7172 145.2ZM55.7172 130.475C55.0172 130.475 54.4755 130.317 54.0922 130C53.7255 129.667 53.5422 129.2 53.5422 128.6C53.5422 127.983 53.7255 127.517 54.0922 127.2C54.4755 126.867 55.0172 126.7 55.7172 126.7C56.4172 126.7 56.9505 126.867 57.3172 127.2C57.6839 127.517 57.8672 127.983 57.8672 128.6C57.8672 129.2 57.6839 129.667 57.3172 130C56.9505 130.317 56.4172 130.475 55.7172 130.475ZM62.4066 145.225C61.79 145.225 61.315 145.058 60.9816 144.725C60.665 144.392 60.5066 143.917 60.5066 143.3V129.075C60.5066 128.442 60.665 127.967 60.9816 127.65C61.315 127.317 61.79 127.15 62.4066 127.15C63.0066 127.15 63.465 127.317 63.7816 127.65C64.115 127.967 64.2816 128.442 64.2816 129.075V137.8H64.3316L67.9566 133.775C68.3233 133.358 68.6566 133.05 68.9566 132.85C69.2733 132.633 69.69 132.525 70.2066 132.525C70.7233 132.525 71.115 132.658 71.3816 132.925C71.665 133.192 71.8066 133.517 71.8066 133.9C71.8233 134.267 71.665 134.642 71.3316 135.025L67.5066 139.3V137.875L71.7566 142.775C72.0733 143.158 72.2066 143.542 72.1566 143.925C72.1233 144.308 71.9566 144.625 71.6566 144.875C71.3566 145.108 70.9733 145.225 70.5066 145.225C69.94 145.225 69.4816 145.117 69.1316 144.9C68.7983 144.683 68.4566 144.35 68.1066 143.9L64.3316 139.7H64.2816V143.3C64.2816 144.583 63.6566 145.225 62.4066 145.225ZM83.3295 145.225C82.7128 145.225 82.2378 145.058 81.9045 144.725C81.5878 144.392 81.4295 143.917 81.4295 143.3V129.075C81.4295 128.442 81.5878 127.967 81.9045 127.65C82.2378 127.317 82.7128 127.15 83.3295 127.15C83.9295 127.15 84.3878 127.317 84.7045 127.65C85.0378 127.967 85.2045 128.442 85.2045 129.075V137.8H85.2545L88.8795 133.775C89.2462 133.358 89.5795 133.05 89.8795 132.85C90.1962 132.633 90.6128 132.525 91.1295 132.525C91.6462 132.525 92.0378 132.658 92.3045 132.925C92.5878 133.192 92.7295 133.517 92.7295 133.9C92.7462 134.267 92.5878 134.642 92.2545 135.025L88.4295 139.3V137.875L92.6795 142.775C92.9962 143.158 93.1295 143.542 93.0795 143.925C93.0462 144.308 92.8795 144.625 92.5795 144.875C92.2795 145.108 91.8962 145.225 91.4295 145.225C90.8628 145.225 90.4045 145.117 90.0545 144.9C89.7212 144.683 89.3795 144.35 89.0295 143.9L85.2545 139.7H85.2045V143.3C85.2045 144.583 84.5795 145.225 83.3295 145.225ZM99.3979 145.275C98.4979 145.275 97.6895 145.1 96.9729 144.75C96.2562 144.4 95.6979 143.925 95.2979 143.325C94.8979 142.725 94.6979 142.05 94.6979 141.3C94.6979 140.4 94.9312 139.692 95.3979 139.175C95.8645 138.642 96.6229 138.267 97.6729 138.05C98.7229 137.817 100.115 137.7 101.848 137.7H103.173V139.65H101.873C101.023 139.65 100.331 139.7 99.7979 139.8C99.2812 139.883 98.9062 140.033 98.6729 140.25C98.4562 140.467 98.3479 140.767 98.3479 141.15C98.3479 141.617 98.5062 142 98.8229 142.3C99.1562 142.6 99.6312 142.75 100.248 142.75C100.731 142.75 101.156 142.642 101.523 142.425C101.906 142.192 102.206 141.883 102.423 141.5C102.64 141.1 102.748 140.65 102.748 140.15V137.275C102.748 136.542 102.581 136.025 102.248 135.725C101.915 135.408 101.348 135.25 100.548 135.25C100.098 135.25 99.6062 135.308 99.0729 135.425C98.5562 135.525 97.9812 135.7 97.3479 135.95C96.9812 136.117 96.6562 136.158 96.3729 136.075C96.0895 135.975 95.8729 135.808 95.7229 135.575C95.5729 135.325 95.4979 135.058 95.4979 134.775C95.4979 134.475 95.5812 134.192 95.7479 133.925C95.9145 133.642 96.1895 133.433 96.5729 133.3C97.3562 132.983 98.0895 132.767 98.7729 132.65C99.4729 132.533 100.115 132.475 100.698 132.475C101.981 132.475 103.031 132.667 103.848 133.05C104.681 133.417 105.306 133.992 105.723 134.775C106.14 135.542 106.348 136.533 106.348 137.75V143.3C106.348 143.917 106.198 144.392 105.898 144.725C105.598 145.058 105.165 145.225 104.598 145.225C104.031 145.225 103.59 145.058 103.273 144.725C102.973 144.392 102.823 143.917 102.823 143.3V142.375L102.998 142.525C102.898 143.092 102.681 143.583 102.348 144C102.031 144.4 101.623 144.717 101.123 144.95C100.623 145.167 100.048 145.275 99.3979 145.275ZM111.114 145.225C110.481 145.225 109.997 145.058 109.664 144.725C109.331 144.392 109.164 143.917 109.164 143.3V134.425C109.164 133.808 109.322 133.342 109.639 133.025C109.972 132.692 110.431 132.525 111.014 132.525C111.614 132.525 112.072 132.692 112.389 133.025C112.706 133.342 112.864 133.808 112.864 134.425V135.725H112.614C112.814 134.725 113.256 133.95 113.939 133.4C114.622 132.85 115.506 132.542 116.589 132.475C117.006 132.442 117.322 132.55 117.539 132.8C117.772 133.033 117.897 133.425 117.914 133.975C117.947 134.492 117.839 134.9 117.589 135.2C117.356 135.5 116.956 135.683 116.389 135.75L115.814 135.8C114.864 135.883 114.156 136.158 113.689 136.625C113.239 137.092 113.014 137.767 113.014 138.65V143.3C113.014 143.917 112.847 144.392 112.514 144.725C112.197 145.058 111.731 145.225 111.114 145.225ZM126.224 145.275C125.074 145.275 124.107 145.083 123.324 144.7C122.557 144.317 121.982 143.758 121.599 143.025C121.232 142.292 121.049 141.367 121.049 140.25V135.55H119.999C119.532 135.55 119.166 135.425 118.899 135.175C118.649 134.925 118.524 134.583 118.524 134.15C118.524 133.683 118.649 133.333 118.899 133.1C119.166 132.85 119.532 132.725 119.999 132.725H121.049V130.825C121.049 130.192 121.216 129.717 121.549 129.4C121.882 129.067 122.349 128.9 122.949 128.9C123.566 128.9 124.032 129.067 124.349 129.4C124.666 129.717 124.824 130.192 124.824 130.825V132.725H127.199C127.666 132.725 128.024 132.85 128.274 133.1C128.524 133.333 128.649 133.683 128.649 134.15C128.649 134.583 128.524 134.925 128.274 135.175C128.024 135.425 127.666 135.55 127.199 135.55H124.824V140.1C124.824 140.8 124.982 141.325 125.299 141.675C125.632 142.025 126.157 142.2 126.874 142.2C127.124 142.2 127.357 142.175 127.574 142.125C127.791 142.075 127.991 142.042 128.174 142.025C128.407 142.008 128.599 142.083 128.749 142.25C128.899 142.4 128.974 142.742 128.974 143.275C128.974 143.675 128.907 144.025 128.774 144.325C128.641 144.625 128.407 144.842 128.074 144.975C127.857 145.058 127.557 145.125 127.174 145.175C126.807 145.242 126.491 145.275 126.224 145.275ZM134.831 145.275C133.798 145.275 132.94 145.083 132.256 144.7C131.573 144.317 131.065 143.742 130.731 142.975C130.415 142.192 130.256 141.225 130.256 140.075V134.425C130.256 133.792 130.415 133.317 130.731 133C131.065 132.683 131.531 132.525 132.131 132.525C132.731 132.525 133.198 132.683 133.531 133C133.865 133.317 134.031 133.792 134.031 134.425V140.175C134.031 140.908 134.181 141.458 134.481 141.825C134.781 142.175 135.256 142.35 135.906 142.35C136.623 142.35 137.206 142.1 137.656 141.6C138.123 141.083 138.356 140.408 138.356 139.575V134.425C138.356 133.792 138.515 133.317 138.831 133C139.165 132.683 139.631 132.525 140.231 132.525C140.848 132.525 141.315 132.683 141.631 133C141.965 133.317 142.131 133.792 142.131 134.425V143.3C142.131 144.583 141.523 145.225 140.306 145.225C139.706 145.225 139.248 145.058 138.931 144.725C138.615 144.392 138.456 143.917 138.456 143.3V141.625L138.831 142.6C138.465 143.45 137.94 144.108 137.256 144.575C136.573 145.042 135.765 145.275 134.831 145.275ZM153.935 145.2C153.318 145.2 152.843 145.025 152.51 144.675C152.193 144.308 152.035 143.8 152.035 143.15V134.6C152.035 133.933 152.193 133.425 152.51 133.075C152.843 132.708 153.318 132.525 153.935 132.525C154.535 132.525 154.993 132.708 155.31 133.075C155.643 133.425 155.81 133.933 155.81 134.6V143.15C155.81 143.8 155.652 144.308 155.335 144.675C155.018 145.025 154.552 145.2 153.935 145.2ZM153.935 130.475C153.235 130.475 152.693 130.317 152.31 130C151.943 129.667 151.76 129.2 151.76 128.6C151.76 127.983 151.943 127.517 152.31 127.2C152.693 126.867 153.235 126.7 153.935 126.7C154.635 126.7 155.168 126.867 155.535 127.2C155.902 127.517 156.085 127.983 156.085 128.6C156.085 129.2 155.902 129.667 155.535 130C155.168 130.317 154.635 130.475 153.935 130.475ZM160.624 145.225C160.008 145.225 159.533 145.058 159.199 144.725C158.883 144.392 158.724 143.917 158.724 143.3V134.425C158.724 133.808 158.883 133.342 159.199 133.025C159.533 132.692 159.991 132.525 160.574 132.525C161.174 132.525 161.633 132.692 161.949 133.025C162.266 133.342 162.424 133.808 162.424 134.425V135.85L162.149 135.025C162.533 134.208 163.099 133.583 163.849 133.15C164.616 132.7 165.483 132.475 166.449 132.475C167.433 132.475 168.241 132.667 168.874 133.05C169.508 133.417 169.983 133.983 170.299 134.75C170.616 135.5 170.774 136.458 170.774 137.625V143.3C170.774 143.917 170.608 144.392 170.274 144.725C169.958 145.058 169.491 145.225 168.874 145.225C168.274 145.225 167.808 145.058 167.474 144.725C167.158 144.392 166.999 143.917 166.999 143.3V137.8C166.999 136.95 166.841 136.342 166.524 135.975C166.224 135.592 165.758 135.4 165.124 135.4C164.324 135.4 163.683 135.65 163.199 136.15C162.733 136.65 162.499 137.317 162.499 138.15V143.3C162.499 144.583 161.874 145.225 160.624 145.225ZM175.493 145.2C174.876 145.2 174.401 145.025 174.068 144.675C173.751 144.308 173.593 143.8 173.593 143.15V134.6C173.593 133.933 173.751 133.425 174.068 133.075C174.401 132.708 174.876 132.525 175.493 132.525C176.093 132.525 176.551 132.708 176.868 133.075C177.201 133.425 177.368 133.933 177.368 134.6V143.15C177.368 143.8 177.209 144.308 176.893 144.675C176.576 145.025 176.109 145.2 175.493 145.2ZM175.493 130.475C174.793 130.475 174.251 130.317 173.868 130C173.501 129.667 173.318 129.2 173.318 128.6C173.318 127.983 173.501 127.517 173.868 127.2C174.251 126.867 174.793 126.7 175.493 126.7C176.193 126.7 176.726 126.867 177.093 127.2C177.459 127.517 177.643 127.983 177.643 128.6C177.643 129.2 177.459 129.667 177.093 130C176.726 130.317 176.193 130.475 175.493 130.475ZM191.789 145.275C190.756 145.275 189.898 145.083 189.214 144.7C188.531 144.317 188.023 143.742 187.689 142.975C187.373 142.192 187.214 141.225 187.214 140.075V134.425C187.214 133.792 187.373 133.317 187.689 133C188.023 132.683 188.489 132.525 189.089 132.525C189.689 132.525 190.156 132.683 190.489 133C190.823 133.317 190.989 133.792 190.989 134.425V140.175C190.989 140.908 191.139 141.458 191.439 141.825C191.739 142.175 192.214 142.35 192.864 142.35C193.581 142.35 194.164 142.1 194.614 141.6C195.081 141.083 195.314 140.408 195.314 139.575V134.425C195.314 133.792 195.473 133.317 195.789 133C196.123 132.683 196.589 132.525 197.189 132.525C197.806 132.525 198.273 132.683 198.589 133C198.923 133.317 199.089 133.792 199.089 134.425V143.3C199.089 144.583 198.481 145.225 197.264 145.225C196.664 145.225 196.206 145.058 195.889 144.725C195.573 144.392 195.414 143.917 195.414 143.3V141.625L195.789 142.6C195.423 143.45 194.898 144.108 194.214 144.575C193.531 145.042 192.723 145.275 191.789 145.275ZM203.911 145.225C203.294 145.225 202.819 145.058 202.486 144.725C202.169 144.392 202.011 143.917 202.011 143.3V134.425C202.011 133.808 202.169 133.342 202.486 133.025C202.819 132.692 203.277 132.525 203.861 132.525C204.461 132.525 204.919 132.692 205.236 133.025C205.552 133.342 205.711 133.808 205.711 134.425V135.85L205.436 135.025C205.819 134.208 206.386 133.583 207.136 133.15C207.902 132.7 208.769 132.475 209.736 132.475C210.719 132.475 211.527 132.667 212.161 133.05C212.794 133.417 213.269 133.983 213.586 134.75C213.902 135.5 214.061 136.458 214.061 137.625V143.3C214.061 143.917 213.894 144.392 213.561 144.725C213.244 145.058 212.777 145.225 212.161 145.225C211.561 145.225 211.094 145.058 210.761 144.725C210.444 144.392 210.286 143.917 210.286 143.3V137.8C210.286 136.95 210.127 136.342 209.811 135.975C209.511 135.592 209.044 135.4 208.411 135.4C207.611 135.4 206.969 135.65 206.486 136.15C206.019 136.65 205.786 137.317 205.786 138.15V143.3C205.786 144.583 205.161 145.225 203.911 145.225ZM222.904 145.275C221.754 145.275 220.787 145.083 220.004 144.7C219.237 144.317 218.662 143.758 218.279 143.025C217.912 142.292 217.729 141.367 217.729 140.25V135.55H216.679C216.212 135.55 215.845 135.425 215.579 135.175C215.329 134.925 215.204 134.583 215.204 134.15C215.204 133.683 215.329 133.333 215.579 133.1C215.845 132.85 216.212 132.725 216.679 132.725H217.729V130.825C217.729 130.192 217.895 129.717 218.229 129.4C218.562 129.067 219.029 128.9 219.629 128.9C220.245 128.9 220.712 129.067 221.029 129.4C221.345 129.717 221.504 130.192 221.504 130.825V132.725H223.879C224.345 132.725 224.704 132.85 224.954 133.1C225.204 133.333 225.329 133.683 225.329 134.15C225.329 134.583 225.204 134.925 224.954 135.175C224.704 135.425 224.345 135.55 223.879 135.55H221.504V140.1C221.504 140.8 221.662 141.325 221.979 141.675C222.312 142.025 222.837 142.2 223.554 142.2C223.804 142.2 224.037 142.175 224.254 142.125C224.47 142.075 224.67 142.042 224.854 142.025C225.087 142.008 225.279 142.083 225.429 142.25C225.579 142.4 225.654 142.742 225.654 143.275C225.654 143.675 225.587 144.025 225.454 144.325C225.32 144.625 225.087 144.842 224.754 144.975C224.537 145.058 224.237 145.125 223.854 145.175C223.487 145.242 223.17 145.275 222.904 145.275ZM231.511 145.275C230.478 145.275 229.619 145.083 228.936 144.7C228.253 144.317 227.744 143.742 227.411 142.975C227.094 142.192 226.936 141.225 226.936 140.075V134.425C226.936 133.792 227.094 133.317 227.411 133C227.744 132.683 228.211 132.525 228.811 132.525C229.411 132.525 229.878 132.683 230.211 133C230.544 133.317 230.711 133.792 230.711 134.425V140.175C230.711 140.908 230.861 141.458 231.161 141.825C231.461 142.175 231.936 142.35 232.586 142.35C233.303 142.35 233.886 142.1 234.336 141.6C234.803 141.083 235.036 140.408 235.036 139.575V134.425C235.036 133.792 235.194 133.317 235.511 133C235.844 132.683 236.311 132.525 236.911 132.525C237.528 132.525 237.994 132.683 238.311 133C238.644 133.317 238.811 133.792 238.811 134.425V143.3C238.811 144.583 238.203 145.225 236.986 145.225C236.386 145.225 235.928 145.058 235.611 144.725C235.294 144.392 235.136 143.917 235.136 143.3V141.625L235.511 142.6C235.144 143.45 234.619 144.108 233.936 144.575C233.253 145.042 232.444 145.275 231.511 145.275ZM243.632 145.225C243.016 145.225 242.541 145.058 242.207 144.725C241.891 144.392 241.732 143.917 241.732 143.3V129.075C241.732 128.442 241.891 127.967 242.207 127.65C242.541 127.317 243.016 127.15 243.632 127.15C244.232 127.15 244.691 127.317 245.007 127.65C245.341 127.967 245.507 128.442 245.507 129.075V137.8H245.557L249.182 133.775C249.549 133.358 249.882 133.05 250.182 132.85C250.499 132.633 250.916 132.525 251.432 132.525C251.949 132.525 252.341 132.658 252.607 132.925C252.891 133.192 253.032 133.517 253.032 133.9C253.049 134.267 252.891 134.642 252.557 135.025L248.732 139.3V137.875L252.982 142.775C253.299 143.158 253.432 143.542 253.382 143.925C253.349 144.308 253.182 144.625 252.882 144.875C252.582 145.108 252.199 145.225 251.732 145.225C251.166 145.225 250.707 145.117 250.357 144.9C250.024 144.683 249.682 144.35 249.332 143.9L245.557 139.7H245.507V143.3C245.507 144.583 244.882 145.225 243.632 145.225ZM264.605 145.225C263.988 145.225 263.513 145.058 263.18 144.725C262.863 144.392 262.705 143.917 262.705 143.3V134.425C262.705 133.808 262.863 133.342 263.18 133.025C263.513 132.692 263.972 132.525 264.555 132.525C265.155 132.525 265.613 132.692 265.93 133.025C266.247 133.342 266.405 133.808 266.405 134.425V136.025L266.13 135.025C266.463 134.258 266.98 133.642 267.68 133.175C268.38 132.708 269.205 132.475 270.155 132.475C271.105 132.475 271.897 132.7 272.53 133.15C273.163 133.6 273.613 134.292 273.88 135.225H273.53C273.897 134.375 274.455 133.708 275.205 133.225C275.972 132.725 276.847 132.475 277.83 132.475C278.78 132.475 279.555 132.667 280.155 133.05C280.772 133.417 281.23 133.983 281.53 134.75C281.83 135.5 281.98 136.458 281.98 137.625V143.3C281.98 143.917 281.813 144.392 281.48 144.725C281.163 145.058 280.705 145.225 280.105 145.225C279.488 145.225 279.013 145.058 278.68 144.725C278.363 144.392 278.205 143.917 278.205 143.3V137.75C278.205 136.933 278.072 136.342 277.805 135.975C277.555 135.592 277.122 135.4 276.505 135.4C275.788 135.4 275.23 135.65 274.83 136.15C274.43 136.65 274.23 137.358 274.23 138.275V143.3C274.23 143.917 274.063 144.392 273.73 144.725C273.413 145.058 272.955 145.225 272.355 145.225C271.755 145.225 271.288 145.058 270.955 144.725C270.622 144.392 270.455 143.917 270.455 143.3V137.75C270.455 136.933 270.322 136.342 270.055 135.975C269.805 135.592 269.372 135.4 268.755 135.4C268.038 135.4 267.48 135.65 267.08 136.15C266.68 136.65 266.48 137.358 266.48 138.275V143.3C266.48 144.583 265.855 145.225 264.605 145.225ZM291.247 145.275C289.797 145.275 288.547 145.017 287.497 144.5C286.464 143.967 285.664 143.225 285.097 142.275C284.547 141.308 284.272 140.175 284.272 138.875C284.272 137.608 284.539 136.5 285.072 135.55C285.605 134.583 286.347 133.833 287.297 133.3C288.264 132.75 289.355 132.475 290.572 132.475C291.455 132.475 292.255 132.625 292.972 132.925C293.689 133.208 294.305 133.625 294.822 134.175C295.339 134.708 295.73 135.367 295.997 136.15C296.264 136.917 296.397 137.775 296.397 138.725C296.397 139.042 296.297 139.283 296.097 139.45C295.897 139.6 295.605 139.675 295.222 139.675H287.372V137.725H293.672L293.272 138.075C293.272 137.392 293.172 136.825 292.972 136.375C292.772 135.908 292.48 135.558 292.097 135.325C291.73 135.092 291.272 134.975 290.722 134.975C290.105 134.975 289.58 135.117 289.147 135.4C288.714 135.683 288.38 136.092 288.147 136.625C287.914 137.158 287.797 137.8 287.797 138.55V138.75C287.797 140.017 288.089 140.95 288.672 141.55C289.272 142.15 290.155 142.45 291.322 142.45C291.722 142.45 292.18 142.4 292.697 142.3C293.214 142.2 293.697 142.042 294.147 141.825C294.53 141.642 294.872 141.583 295.172 141.65C295.472 141.7 295.705 141.833 295.872 142.05C296.039 142.267 296.13 142.517 296.147 142.8C296.18 143.083 296.122 143.367 295.972 143.65C295.822 143.917 295.572 144.142 295.222 144.325C294.655 144.642 294.014 144.875 293.297 145.025C292.597 145.192 291.914 145.275 291.247 145.275ZM303.018 145.275C301.534 145.275 300.426 144.867 299.693 144.05C298.959 143.217 298.593 141.983 298.593 140.35V129.075C298.593 128.442 298.751 127.967 299.068 127.65C299.401 127.317 299.876 127.15 300.493 127.15C301.093 127.15 301.551 127.317 301.868 127.65C302.201 127.967 302.368 128.442 302.368 129.075V140.2C302.368 140.883 302.509 141.392 302.793 141.725C303.093 142.042 303.484 142.2 303.968 142.2C304.101 142.2 304.226 142.192 304.343 142.175C304.459 142.158 304.584 142.15 304.718 142.15C304.984 142.117 305.168 142.2 305.268 142.4C305.384 142.583 305.443 142.958 305.443 143.525C305.443 144.025 305.343 144.408 305.143 144.675C304.943 144.925 304.634 145.092 304.218 145.175C304.051 145.192 303.859 145.208 303.643 145.225C303.426 145.258 303.218 145.275 303.018 145.275ZM308.818 145.2C308.201 145.2 307.726 145.025 307.393 144.675C307.076 144.308 306.918 143.8 306.918 143.15V134.6C306.918 133.933 307.076 133.425 307.393 133.075C307.726 132.708 308.201 132.525 308.818 132.525C309.418 132.525 309.876 132.708 310.193 133.075C310.526 133.425 310.693 133.933 310.693 134.6V143.15C310.693 143.8 310.534 144.308 310.218 144.675C309.901 145.025 309.434 145.2 308.818 145.2ZM308.818 130.475C308.118 130.475 307.576 130.317 307.193 130C306.826 129.667 306.643 129.2 306.643 128.6C306.643 127.983 306.826 127.517 307.193 127.2C307.576 126.867 308.118 126.7 308.818 126.7C309.518 126.7 310.051 126.867 310.418 127.2C310.784 127.517 310.968 127.983 310.968 128.6C310.968 129.2 310.784 129.667 310.418 130C310.051 130.317 309.518 130.475 308.818 130.475ZM315.507 145.225C314.891 145.225 314.416 145.058 314.082 144.725C313.766 144.392 313.607 143.917 313.607 143.3V129.075C313.607 128.442 313.766 127.967 314.082 127.65C314.416 127.317 314.891 127.15 315.507 127.15C316.107 127.15 316.566 127.317 316.882 127.65C317.216 127.967 317.382 128.442 317.382 129.075V135.025H317.032C317.416 134.208 317.982 133.583 318.732 133.15C319.499 132.7 320.366 132.475 321.332 132.475C322.316 132.475 323.124 132.667 323.757 133.05C324.391 133.417 324.866 133.983 325.182 134.75C325.499 135.5 325.657 136.458 325.657 137.625V143.3C325.657 143.917 325.491 144.392 325.157 144.725C324.841 145.058 324.374 145.225 323.757 145.225C323.157 145.225 322.691 145.058 322.357 144.725C322.041 144.392 321.882 143.917 321.882 143.3V137.8C321.882 136.95 321.724 136.342 321.407 135.975C321.107 135.592 320.641 135.4 320.007 135.4C319.207 135.4 318.566 135.65 318.082 136.15C317.616 136.65 317.382 137.317 317.382 138.15V143.3C317.382 144.583 316.757 145.225 315.507 145.225ZM332.625 145.275C331.725 145.275 330.917 145.1 330.2 144.75C329.484 144.4 328.925 143.925 328.525 143.325C328.125 142.725 327.925 142.05 327.925 141.3C327.925 140.4 328.159 139.692 328.625 139.175C329.092 138.642 329.85 138.267 330.9 138.05C331.95 137.817 333.342 137.7 335.075 137.7H336.4V139.65H335.1C334.25 139.65 333.559 139.7 333.025 139.8C332.509 139.883 332.134 140.033 331.9 140.25C331.684 140.467 331.575 140.767 331.575 141.15C331.575 141.617 331.734 142 332.05 142.3C332.384 142.6 332.859 142.75 333.475 142.75C333.959 142.75 334.384 142.642 334.75 142.425C335.134 142.192 335.434 141.883 335.65 141.5C335.867 141.1 335.975 140.65 335.975 140.15V137.275C335.975 136.542 335.809 136.025 335.475 135.725C335.142 135.408 334.575 135.25 333.775 135.25C333.325 135.25 332.834 135.308 332.3 135.425C331.784 135.525 331.209 135.7 330.575 135.95C330.209 136.117 329.884 136.158 329.6 136.075C329.317 135.975 329.1 135.808 328.95 135.575C328.8 135.325 328.725 135.058 328.725 134.775C328.725 134.475 328.809 134.192 328.975 133.925C329.142 133.642 329.417 133.433 329.8 133.3C330.584 132.983 331.317 132.767 332 132.65C332.7 132.533 333.342 132.475 333.925 132.475C335.209 132.475 336.259 132.667 337.075 133.05C337.909 133.417 338.534 133.992 338.95 134.775C339.367 135.542 339.575 136.533 339.575 137.75V143.3C339.575 143.917 339.425 144.392 339.125 144.725C338.825 145.058 338.392 145.225 337.825 145.225C337.259 145.225 336.817 145.058 336.5 144.725C336.2 144.392 336.05 143.917 336.05 143.3V142.375L336.225 142.525C336.125 143.092 335.909 143.583 335.575 144C335.259 144.4 334.85 144.717 334.35 144.95C333.85 145.167 333.275 145.275 332.625 145.275ZM348.416 145.275C347.266 145.275 346.3 145.083 345.516 144.7C344.75 144.317 344.175 143.758 343.791 143.025C343.425 142.292 343.241 141.367 343.241 140.25V135.55H342.191C341.725 135.55 341.358 135.425 341.091 135.175C340.841 134.925 340.716 134.583 340.716 134.15C340.716 133.683 340.841 133.333 341.091 133.1C341.358 132.85 341.725 132.725 342.191 132.725H343.241V130.825C343.241 130.192 343.408 129.717 343.741 129.4C344.075 129.067 344.541 128.9 345.141 128.9C345.758 128.9 346.225 129.067 346.541 129.4C346.858 129.717 347.016 130.192 347.016 130.825V132.725H349.391C349.858 132.725 350.216 132.85 350.466 133.1C350.716 133.333 350.841 133.683 350.841 134.15C350.841 134.583 350.716 134.925 350.466 135.175C350.216 135.425 349.858 135.55 349.391 135.55H347.016V140.1C347.016 140.8 347.175 141.325 347.491 141.675C347.825 142.025 348.35 142.2 349.066 142.2C349.316 142.2 349.55 142.175 349.766 142.125C349.983 142.075 350.183 142.042 350.366 142.025C350.6 142.008 350.791 142.083 350.941 142.25C351.091 142.4 351.166 142.742 351.166 143.275C351.166 143.675 351.1 144.025 350.966 144.325C350.833 144.625 350.6 144.842 350.266 144.975C350.05 145.058 349.75 145.125 349.366 145.175C349 145.242 348.683 145.275 348.416 145.275ZM32.225 179.275C31.1583 179.275 30.2167 179.017 29.4 178.5C28.6 177.983 27.975 177.242 27.525 176.275C27.075 175.308 26.85 174.167 26.85 172.85C26.85 171.533 27.075 170.4 27.525 169.45C27.975 168.5 28.6 167.767 29.4 167.25C30.2167 166.733 31.1583 166.475 32.225 166.475C33.1917 166.475 34.0417 166.708 34.775 167.175C35.525 167.642 36.0333 168.25 36.3 169H36.025V163.075C36.025 162.442 36.1833 161.967 36.5 161.65C36.8167 161.317 37.2833 161.15 37.9 161.15C38.5 161.15 38.9667 161.317 39.3 161.65C39.6333 161.967 39.8 162.442 39.8 163.075V177.3C39.8 177.917 39.6333 178.392 39.3 178.725C38.9833 179.058 38.525 179.225 37.925 179.225C37.325 179.225 36.8583 179.058 36.525 178.725C36.2083 178.392 36.05 177.917 36.05 177.3V175.6L36.325 176.575C36.0917 177.392 35.5917 178.05 34.825 178.55C34.075 179.033 33.2083 179.275 32.225 179.275ZM33.35 176.45C33.9 176.45 34.375 176.317 34.775 176.05C35.175 175.783 35.4917 175.392 35.725 174.875C35.9583 174.342 36.075 173.667 36.075 172.85C36.075 171.633 35.825 170.742 35.325 170.175C34.825 169.592 34.1667 169.3 33.35 169.3C32.8167 169.3 32.3417 169.425 31.925 169.675C31.525 169.925 31.2083 170.317 30.975 170.85C30.7583 171.367 30.65 172.033 30.65 172.85C30.65 174.067 30.9 174.975 31.4 175.575C31.9 176.158 32.55 176.45 33.35 176.45ZM49.0838 179.275C47.6338 179.275 46.3838 179.017 45.3338 178.5C44.3005 177.967 43.5005 177.225 42.9338 176.275C42.3838 175.308 42.1088 174.175 42.1088 172.875C42.1088 171.608 42.3755 170.5 42.9088 169.55C43.4421 168.583 44.1838 167.833 45.1338 167.3C46.1005 166.75 47.1921 166.475 48.4088 166.475C49.2921 166.475 50.0921 166.625 50.8088 166.925C51.5255 167.208 52.1421 167.625 52.6588 168.175C53.1755 168.708 53.5671 169.367 53.8338 170.15C54.1005 170.917 54.2338 171.775 54.2338 172.725C54.2338 173.042 54.1338 173.283 53.9338 173.45C53.7338 173.6 53.4421 173.675 53.0588 173.675H45.2088V171.725H51.5088L51.1088 172.075C51.1088 171.392 51.0088 170.825 50.8088 170.375C50.6088 169.908 50.3171 169.558 49.9338 169.325C49.5671 169.092 49.1088 168.975 48.5588 168.975C47.9421 168.975 47.4171 169.117 46.9838 169.4C46.5505 169.683 46.2171 170.092 45.9838 170.625C45.7505 171.158 45.6338 171.8 45.6338 172.55V172.75C45.6338 174.017 45.9255 174.95 46.5088 175.55C47.1088 176.15 47.9921 176.45 49.1588 176.45C49.5588 176.45 50.0171 176.4 50.5338 176.3C51.0505 176.2 51.5338 176.042 51.9838 175.825C52.3671 175.642 52.7088 175.583 53.0088 175.65C53.3088 175.7 53.5421 175.833 53.7088 176.05C53.8755 176.267 53.9671 176.517 53.9838 176.8C54.0171 177.083 53.9588 177.367 53.8088 177.65C53.6588 177.917 53.4088 178.142 53.0588 178.325C52.4921 178.642 51.8505 178.875 51.1338 179.025C50.4338 179.192 49.7505 179.275 49.0838 179.275ZM61.1295 179.275C60.3962 179.275 59.6378 179.208 58.8545 179.075C58.0878 178.942 57.3878 178.717 56.7545 178.4C56.4212 178.233 56.1795 178.025 56.0295 177.775C55.8962 177.508 55.8378 177.242 55.8545 176.975C55.8712 176.708 55.9545 176.467 56.1045 176.25C56.2712 176.033 56.4795 175.892 56.7295 175.825C56.9962 175.742 57.2878 175.767 57.6045 175.9C58.2878 176.183 58.9128 176.383 59.4795 176.5C60.0462 176.617 60.6045 176.675 61.1545 176.675C61.8712 176.675 62.3878 176.567 62.7045 176.35C63.0378 176.117 63.2045 175.817 63.2045 175.45C63.2045 175.117 63.0962 174.867 62.8795 174.7C62.6628 174.533 62.3462 174.417 61.9295 174.35L59.3045 173.875C58.2712 173.692 57.4712 173.317 56.9045 172.75C56.3545 172.167 56.0795 171.425 56.0795 170.525C56.0795 169.692 56.3128 168.975 56.7795 168.375C57.2462 167.758 57.8878 167.292 58.7045 166.975C59.5378 166.642 60.4795 166.475 61.5295 166.475C62.2795 166.475 62.9712 166.542 63.6045 166.675C64.2378 166.808 64.8462 167.025 65.4295 167.325C65.7295 167.475 65.9378 167.675 66.0545 167.925C66.1878 168.175 66.2295 168.433 66.1795 168.7C66.1462 168.967 66.0462 169.208 65.8795 169.425C65.7128 169.642 65.4962 169.783 65.2295 169.85C64.9795 169.917 64.6878 169.883 64.3545 169.75C63.8212 169.5 63.3295 169.325 62.8795 169.225C62.4295 169.108 61.9962 169.05 61.5795 169.05C60.8295 169.05 60.2878 169.175 59.9545 169.425C59.6212 169.658 59.4545 169.958 59.4545 170.325C59.4545 170.608 59.5462 170.85 59.7295 171.05C59.9295 171.233 60.2295 171.358 60.6295 171.425L63.2545 171.9C64.3378 172.083 65.1628 172.45 65.7295 173C66.2962 173.533 66.5795 174.267 66.5795 175.2C66.5795 176.467 66.0795 177.467 65.0795 178.2C64.0962 178.917 62.7795 179.275 61.1295 179.275ZM70.6342 179.225C70.0175 179.225 69.5425 179.058 69.2092 178.725C68.8925 178.392 68.7342 177.917 68.7342 177.3V163.075C68.7342 162.442 68.8925 161.967 69.2092 161.65C69.5425 161.317 70.0175 161.15 70.6342 161.15C71.2342 161.15 71.6925 161.317 72.0092 161.65C72.3425 161.967 72.5092 162.442 72.5092 163.075V171.8H72.5592L76.1842 167.775C76.5508 167.358 76.8842 167.05 77.1842 166.85C77.5008 166.633 77.9175 166.525 78.4342 166.525C78.9508 166.525 79.3425 166.658 79.6092 166.925C79.8925 167.192 80.0342 167.517 80.0342 167.9C80.0508 168.267 79.8925 168.642 79.5592 169.025L75.7342 173.3V171.875L79.9842 176.775C80.3008 177.158 80.4342 177.542 80.3842 177.925C80.3508 178.308 80.1842 178.625 79.8842 178.875C79.5842 179.108 79.2008 179.225 78.7342 179.225C78.1675 179.225 77.7092 179.117 77.3592 178.9C77.0258 178.683 76.6842 178.35 76.3342 177.9L72.5592 173.7H72.5092V177.3C72.5092 178.583 71.8842 179.225 70.6342 179.225ZM84.6246 179.225C83.9913 179.225 83.5079 179.058 83.1746 178.725C82.8413 178.392 82.6746 177.917 82.6746 177.3V168.425C82.6746 167.808 82.8329 167.342 83.1496 167.025C83.4829 166.692 83.9413 166.525 84.5246 166.525C85.1246 166.525 85.5829 166.692 85.8996 167.025C86.2163 167.342 86.3746 167.808 86.3746 168.425V169.725H86.1246C86.3246 168.725 86.7663 167.95 87.4496 167.4C88.1329 166.85 89.0163 166.542 90.0996 166.475C90.5163 166.442 90.8329 166.55 91.0496 166.8C91.2829 167.033 91.4079 167.425 91.4246 167.975C91.4579 168.492 91.3496 168.9 91.0996 169.2C90.8663 169.5 90.4663 169.683 89.8996 169.75L89.3246 169.8C88.3746 169.883 87.6663 170.158 87.1996 170.625C86.7496 171.092 86.5246 171.767 86.5246 172.65V177.3C86.5246 177.917 86.3579 178.392 86.0246 178.725C85.7079 179.058 85.2413 179.225 84.6246 179.225ZM94.8773 179.2C94.2607 179.2 93.7857 179.025 93.4523 178.675C93.1357 178.308 92.9773 177.8 92.9773 177.15V168.6C92.9773 167.933 93.1357 167.425 93.4523 167.075C93.7857 166.708 94.2607 166.525 94.8773 166.525C95.4773 166.525 95.9357 166.708 96.2523 167.075C96.5857 167.425 96.7523 167.933 96.7523 168.6V177.15C96.7523 177.8 96.594 178.308 96.2773 178.675C95.9607 179.025 95.494 179.2 94.8773 179.2ZM94.8773 164.475C94.1773 164.475 93.6357 164.317 93.2523 164C92.8857 163.667 92.7023 163.2 92.7023 162.6C92.7023 161.983 92.8857 161.517 93.2523 161.2C93.6357 160.867 94.1773 160.7 94.8773 160.7C95.5773 160.7 96.1107 160.867 96.4773 161.2C96.844 161.517 97.0273 161.983 97.0273 162.6C97.0273 163.2 96.844 163.667 96.4773 164C96.1107 164.317 95.5773 164.475 94.8773 164.475ZM101.567 183.725C100.95 183.725 100.475 183.558 100.142 183.225C99.8251 182.908 99.6668 182.433 99.6668 181.8V168.425C99.6668 167.808 99.8251 167.342 100.142 167.025C100.475 166.692 100.933 166.525 101.517 166.525C102.133 166.525 102.6 166.692 102.917 167.025C103.233 167.342 103.392 167.808 103.392 168.425V170.125L103.117 169.15C103.367 168.35 103.867 167.708 104.617 167.225C105.383 166.725 106.258 166.475 107.242 166.475C108.308 166.475 109.242 166.733 110.042 167.25C110.858 167.767 111.492 168.5 111.942 169.45C112.392 170.4 112.617 171.533 112.617 172.85C112.617 174.167 112.392 175.308 111.942 176.275C111.492 177.242 110.867 177.983 110.067 178.5C109.267 179.017 108.325 179.275 107.242 179.275C106.275 179.275 105.417 179.042 104.667 178.575C103.917 178.092 103.408 177.467 103.142 176.7H103.442V181.8C103.442 182.433 103.275 182.908 102.942 183.225C102.625 183.558 102.167 183.725 101.567 183.725ZM106.117 176.45C106.65 176.45 107.117 176.317 107.517 176.05C107.933 175.783 108.25 175.392 108.467 174.875C108.7 174.342 108.817 173.667 108.817 172.85C108.817 171.633 108.567 170.742 108.067 170.175C107.567 169.592 106.917 169.3 106.117 169.3C105.583 169.3 105.108 169.425 104.692 169.675C104.292 169.925 103.975 170.317 103.742 170.85C103.508 171.367 103.392 172.033 103.392 172.85C103.392 174.067 103.642 174.975 104.142 175.575C104.642 176.158 105.3 176.45 106.117 176.45ZM119.626 179.275C118.892 179.275 118.134 179.208 117.351 179.075C116.584 178.942 115.884 178.717 115.251 178.4C114.917 178.233 114.676 178.025 114.526 177.775C114.392 177.508 114.334 177.242 114.351 176.975C114.367 176.708 114.451 176.467 114.601 176.25C114.767 176.033 114.976 175.892 115.226 175.825C115.492 175.742 115.784 175.767 116.101 175.9C116.784 176.183 117.409 176.383 117.976 176.5C118.542 176.617 119.101 176.675 119.651 176.675C120.367 176.675 120.884 176.567 121.201 176.35C121.534 176.117 121.701 175.817 121.701 175.45C121.701 175.117 121.592 174.867 121.376 174.7C121.159 174.533 120.842 174.417 120.426 174.35L117.801 173.875C116.767 173.692 115.967 173.317 115.401 172.75C114.851 172.167 114.576 171.425 114.576 170.525C114.576 169.692 114.809 168.975 115.276 168.375C115.742 167.758 116.384 167.292 117.201 166.975C118.034 166.642 118.976 166.475 120.026 166.475C120.776 166.475 121.467 166.542 122.101 166.675C122.734 166.808 123.342 167.025 123.926 167.325C124.226 167.475 124.434 167.675 124.551 167.925C124.684 168.175 124.726 168.433 124.676 168.7C124.642 168.967 124.542 169.208 124.376 169.425C124.209 169.642 123.992 169.783 123.726 169.85C123.476 169.917 123.184 169.883 122.851 169.75C122.317 169.5 121.826 169.325 121.376 169.225C120.926 169.108 120.492 169.05 120.076 169.05C119.326 169.05 118.784 169.175 118.451 169.425C118.117 169.658 117.951 169.958 117.951 170.325C117.951 170.608 118.042 170.85 118.226 171.05C118.426 171.233 118.726 171.358 119.126 171.425L121.751 171.9C122.834 172.083 123.659 172.45 124.226 173C124.792 173.533 125.076 174.267 125.076 175.2C125.076 176.467 124.576 177.467 123.576 178.2C122.592 178.917 121.276 179.275 119.626 179.275ZM129.13 179.2C128.514 179.2 128.039 179.025 127.705 178.675C127.389 178.308 127.23 177.8 127.23 177.15V168.6C127.23 167.933 127.389 167.425 127.705 167.075C128.039 166.708 128.514 166.525 129.13 166.525C129.73 166.525 130.189 166.708 130.505 167.075C130.839 167.425 131.005 167.933 131.005 168.6V177.15C131.005 177.8 130.847 178.308 130.53 178.675C130.214 179.025 129.747 179.2 129.13 179.2ZM129.13 164.475C128.43 164.475 127.889 164.317 127.505 164C127.139 163.667 126.955 163.2 126.955 162.6C126.955 161.983 127.139 161.517 127.505 161.2C127.889 160.867 128.43 160.7 129.13 160.7C129.83 160.7 130.364 160.867 130.73 161.2C131.097 161.517 131.28 161.983 131.28 162.6C131.28 163.2 131.097 163.667 130.73 164C130.364 164.317 129.83 164.475 129.13 164.475ZM145.677 179.275C144.61 179.275 143.669 179.017 142.852 178.5C142.052 177.983 141.427 177.242 140.977 176.275C140.527 175.308 140.302 174.167 140.302 172.85C140.302 171.533 140.527 170.4 140.977 169.45C141.427 168.5 142.052 167.767 142.852 167.25C143.669 166.733 144.61 166.475 145.677 166.475C146.644 166.475 147.494 166.708 148.227 167.175C148.977 167.642 149.485 168.25 149.752 169H149.477V163.075C149.477 162.442 149.635 161.967 149.952 161.65C150.269 161.317 150.735 161.15 151.352 161.15C151.952 161.15 152.419 161.317 152.752 161.65C153.085 161.967 153.252 162.442 153.252 163.075V177.3C153.252 177.917 153.085 178.392 152.752 178.725C152.435 179.058 151.977 179.225 151.377 179.225C150.777 179.225 150.31 179.058 149.977 178.725C149.66 178.392 149.502 177.917 149.502 177.3V175.6L149.777 176.575C149.544 177.392 149.044 178.05 148.277 178.55C147.527 179.033 146.66 179.275 145.677 179.275ZM146.802 176.45C147.352 176.45 147.827 176.317 148.227 176.05C148.627 175.783 148.944 175.392 149.177 174.875C149.41 174.342 149.527 173.667 149.527 172.85C149.527 171.633 149.277 170.742 148.777 170.175C148.277 169.592 147.619 169.3 146.802 169.3C146.269 169.3 145.794 169.425 145.377 169.675C144.977 169.925 144.66 170.317 144.427 170.85C144.21 171.367 144.102 172.033 144.102 172.85C144.102 174.067 144.352 174.975 144.852 175.575C145.352 176.158 146.002 176.45 146.802 176.45ZM160.311 179.275C159.411 179.275 158.603 179.1 157.886 178.75C157.169 178.4 156.611 177.925 156.211 177.325C155.811 176.725 155.611 176.05 155.611 175.3C155.611 174.4 155.844 173.692 156.311 173.175C156.778 172.642 157.536 172.267 158.586 172.05C159.636 171.817 161.028 171.7 162.761 171.7H164.086V173.65H162.786C161.936 173.65 161.244 173.7 160.711 173.8C160.194 173.883 159.819 174.033 159.586 174.25C159.369 174.467 159.261 174.767 159.261 175.15C159.261 175.617 159.419 176 159.736 176.3C160.069 176.6 160.544 176.75 161.161 176.75C161.644 176.75 162.069 176.642 162.436 176.425C162.819 176.192 163.119 175.883 163.336 175.5C163.553 175.1 163.661 174.65 163.661 174.15V171.275C163.661 170.542 163.494 170.025 163.161 169.725C162.828 169.408 162.261 169.25 161.461 169.25C161.011 169.25 160.519 169.308 159.986 169.425C159.469 169.525 158.894 169.7 158.261 169.95C157.894 170.117 157.569 170.158 157.286 170.075C157.003 169.975 156.786 169.808 156.636 169.575C156.486 169.325 156.411 169.058 156.411 168.775C156.411 168.475 156.494 168.192 156.661 167.925C156.828 167.642 157.103 167.433 157.486 167.3C158.269 166.983 159.003 166.767 159.686 166.65C160.386 166.533 161.028 166.475 161.611 166.475C162.894 166.475 163.944 166.667 164.761 167.05C165.594 167.417 166.219 167.992 166.636 168.775C167.053 169.542 167.261 170.533 167.261 171.75V177.3C167.261 177.917 167.111 178.392 166.811 178.725C166.511 179.058 166.078 179.225 165.511 179.225C164.944 179.225 164.503 179.058 164.186 178.725C163.886 178.392 163.736 177.917 163.736 177.3V176.375L163.911 176.525C163.811 177.092 163.594 177.583 163.261 178C162.944 178.4 162.536 178.717 162.036 178.95C161.536 179.167 160.961 179.275 160.311 179.275ZM172.027 179.225C171.394 179.225 170.91 179.058 170.577 178.725C170.244 178.392 170.077 177.917 170.077 177.3V168.425C170.077 167.808 170.235 167.342 170.552 167.025C170.885 166.692 171.344 166.525 171.927 166.525C172.527 166.525 172.985 166.692 173.302 167.025C173.619 167.342 173.777 167.808 173.777 168.425V169.725H173.527C173.727 168.725 174.169 167.95 174.852 167.4C175.535 166.85 176.419 166.542 177.502 166.475C177.919 166.442 178.235 166.55 178.452 166.8C178.685 167.033 178.81 167.425 178.827 167.975C178.86 168.492 178.752 168.9 178.502 169.2C178.269 169.5 177.869 169.683 177.302 169.75L176.727 169.8C175.777 169.883 175.069 170.158 174.602 170.625C174.152 171.092 173.927 171.767 173.927 172.65V177.3C173.927 177.917 173.76 178.392 173.427 178.725C173.11 179.058 172.644 179.225 172.027 179.225ZM182.28 179.2C181.663 179.2 181.188 179.025 180.855 178.675C180.538 178.308 180.38 177.8 180.38 177.15V168.6C180.38 167.933 180.538 167.425 180.855 167.075C181.188 166.708 181.663 166.525 182.28 166.525C182.88 166.525 183.338 166.708 183.655 167.075C183.988 167.425 184.155 167.933 184.155 168.6V177.15C184.155 177.8 183.996 178.308 183.68 178.675C183.363 179.025 182.896 179.2 182.28 179.2ZM182.28 164.475C181.58 164.475 181.038 164.317 180.655 164C180.288 163.667 180.105 163.2 180.105 162.6C180.105 161.983 180.288 161.517 180.655 161.2C181.038 160.867 181.58 160.7 182.28 160.7C182.98 160.7 183.513 160.867 183.88 161.2C184.246 161.517 184.43 161.983 184.43 162.6C184.43 163.2 184.246 163.667 183.88 164C183.513 164.317 182.98 164.475 182.28 164.475ZM198.752 179.275C198.018 179.275 197.26 179.208 196.477 179.075C195.71 178.942 195.01 178.717 194.377 178.4C194.043 178.233 193.802 178.025 193.652 177.775C193.518 177.508 193.46 177.242 193.477 176.975C193.493 176.708 193.577 176.467 193.727 176.25C193.893 176.033 194.102 175.892 194.352 175.825C194.618 175.742 194.91 175.767 195.227 175.9C195.91 176.183 196.535 176.383 197.102 176.5C197.668 176.617 198.227 176.675 198.777 176.675C199.493 176.675 200.01 176.567 200.327 176.35C200.66 176.117 200.827 175.817 200.827 175.45C200.827 175.117 200.718 174.867 200.502 174.7C200.285 174.533 199.968 174.417 199.552 174.35L196.927 173.875C195.893 173.692 195.093 173.317 194.527 172.75C193.977 172.167 193.702 171.425 193.702 170.525C193.702 169.692 193.935 168.975 194.402 168.375C194.868 167.758 195.51 167.292 196.327 166.975C197.16 166.642 198.102 166.475 199.152 166.475C199.902 166.475 200.593 166.542 201.227 166.675C201.86 166.808 202.468 167.025 203.052 167.325C203.352 167.475 203.56 167.675 203.677 167.925C203.81 168.175 203.852 168.433 203.802 168.7C203.768 168.967 203.668 169.208 203.502 169.425C203.335 169.642 203.118 169.783 202.852 169.85C202.602 169.917 202.31 169.883 201.977 169.75C201.443 169.5 200.952 169.325 200.502 169.225C200.052 169.108 199.618 169.05 199.202 169.05C198.452 169.05 197.91 169.175 197.577 169.425C197.243 169.658 197.077 169.958 197.077 170.325C197.077 170.608 197.168 170.85 197.352 171.05C197.552 171.233 197.852 171.358 198.252 171.425L200.877 171.9C201.96 172.083 202.785 172.45 203.352 173C203.918 173.533 204.202 174.267 204.202 175.2C204.202 176.467 203.702 177.467 202.702 178.2C201.718 178.917 200.402 179.275 198.752 179.275ZM212.731 179.275C211.281 179.275 210.031 179.017 208.981 178.5C207.948 177.967 207.148 177.225 206.581 176.275C206.031 175.308 205.756 174.175 205.756 172.875C205.756 171.608 206.023 170.5 206.556 169.55C207.09 168.583 207.831 167.833 208.781 167.3C209.748 166.75 210.84 166.475 212.056 166.475C212.94 166.475 213.74 166.625 214.456 166.925C215.173 167.208 215.79 167.625 216.306 168.175C216.823 168.708 217.215 169.367 217.481 170.15C217.748 170.917 217.881 171.775 217.881 172.725C217.881 173.042 217.781 173.283 217.581 173.45C217.381 173.6 217.09 173.675 216.706 173.675H208.856V171.725H215.156L214.756 172.075C214.756 171.392 214.656 170.825 214.456 170.375C214.256 169.908 213.965 169.558 213.581 169.325C213.215 169.092 212.756 168.975 212.206 168.975C211.59 168.975 211.065 169.117 210.631 169.4C210.198 169.683 209.865 170.092 209.631 170.625C209.398 171.158 209.281 171.8 209.281 172.55V172.75C209.281 174.017 209.573 174.95 210.156 175.55C210.756 176.15 211.64 176.45 212.806 176.45C213.206 176.45 213.665 176.4 214.181 176.3C214.698 176.2 215.181 176.042 215.631 175.825C216.015 175.642 216.356 175.583 216.656 175.65C216.956 175.7 217.19 175.833 217.356 176.05C217.523 176.267 217.615 176.517 217.631 176.8C217.665 177.083 217.606 177.367 217.456 177.65C217.306 177.917 217.056 178.142 216.706 178.325C216.14 178.642 215.498 178.875 214.781 179.025C214.081 179.192 213.398 179.275 212.731 179.275ZM226.029 179.275C224.879 179.275 223.912 179.083 223.129 178.7C222.362 178.317 221.787 177.758 221.404 177.025C221.037 176.292 220.854 175.367 220.854 174.25V169.55H219.804C219.337 169.55 218.97 169.425 218.704 169.175C218.454 168.925 218.329 168.583 218.329 168.15C218.329 167.683 218.454 167.333 218.704 167.1C218.97 166.85 219.337 166.725 219.804 166.725H220.854V164.825C220.854 164.192 221.02 163.717 221.354 163.4C221.687 163.067 222.154 162.9 222.754 162.9C223.37 162.9 223.837 163.067 224.154 163.4C224.47 163.717 224.629 164.192 224.629 164.825V166.725H227.004C227.47 166.725 227.829 166.85 228.079 167.1C228.329 167.333 228.454 167.683 228.454 168.15C228.454 168.583 228.329 168.925 228.079 169.175C227.829 169.425 227.47 169.55 227.004 169.55H224.629V174.1C224.629 174.8 224.787 175.325 225.104 175.675C225.437 176.025 225.962 176.2 226.679 176.2C226.929 176.2 227.162 176.175 227.379 176.125C227.595 176.075 227.795 176.042 227.979 176.025C228.212 176.008 228.404 176.083 228.554 176.25C228.704 176.4 228.779 176.742 228.779 177.275C228.779 177.675 228.712 178.025 228.579 178.325C228.445 178.625 228.212 178.842 227.879 178.975C227.662 179.058 227.362 179.125 226.979 179.175C226.612 179.242 226.295 179.275 226.029 179.275ZM232.402 179.2C231.785 179.2 231.31 179.025 230.977 178.675C230.66 178.308 230.502 177.8 230.502 177.15V168.6C230.502 167.933 230.66 167.425 230.977 167.075C231.31 166.708 231.785 166.525 232.402 166.525C233.002 166.525 233.46 166.708 233.777 167.075C234.11 167.425 234.277 167.933 234.277 168.6V177.15C234.277 177.8 234.118 178.308 233.802 178.675C233.485 179.025 233.018 179.2 232.402 179.2ZM232.402 164.475C231.702 164.475 231.16 164.317 230.777 164C230.41 163.667 230.227 163.2 230.227 162.6C230.227 161.983 230.41 161.517 230.777 161.2C231.16 160.867 231.702 160.7 232.402 160.7C233.102 160.7 233.635 160.867 234.002 161.2C234.368 161.517 234.552 161.983 234.552 162.6C234.552 163.2 234.368 163.667 234.002 164C233.635 164.317 233.102 164.475 232.402 164.475ZM241.341 179.275C240.441 179.275 239.633 179.1 238.916 178.75C238.2 178.4 237.641 177.925 237.241 177.325C236.841 176.725 236.641 176.05 236.641 175.3C236.641 174.4 236.875 173.692 237.341 173.175C237.808 172.642 238.566 172.267 239.616 172.05C240.666 171.817 242.058 171.7 243.791 171.7H245.116V173.65H243.816C242.966 173.65 242.275 173.7 241.741 173.8C241.225 173.883 240.85 174.033 240.616 174.25C240.4 174.467 240.291 174.767 240.291 175.15C240.291 175.617 240.45 176 240.766 176.3C241.1 176.6 241.575 176.75 242.191 176.75C242.675 176.75 243.1 176.642 243.466 176.425C243.85 176.192 244.15 175.883 244.366 175.5C244.583 175.1 244.691 174.65 244.691 174.15V171.275C244.691 170.542 244.525 170.025 244.191 169.725C243.858 169.408 243.291 169.25 242.491 169.25C242.041 169.25 241.55 169.308 241.016 169.425C240.5 169.525 239.925 169.7 239.291 169.95C238.925 170.117 238.6 170.158 238.316 170.075C238.033 169.975 237.816 169.808 237.666 169.575C237.516 169.325 237.441 169.058 237.441 168.775C237.441 168.475 237.525 168.192 237.691 167.925C237.858 167.642 238.133 167.433 238.516 167.3C239.3 166.983 240.033 166.767 240.716 166.65C241.416 166.533 242.058 166.475 242.641 166.475C243.925 166.475 244.975 166.667 245.791 167.05C246.625 167.417 247.25 167.992 247.666 168.775C248.083 169.542 248.291 170.533 248.291 171.75V177.3C248.291 177.917 248.141 178.392 247.841 178.725C247.541 179.058 247.108 179.225 246.541 179.225C245.975 179.225 245.533 179.058 245.216 178.725C244.916 178.392 244.766 177.917 244.766 177.3V176.375L244.941 176.525C244.841 177.092 244.625 177.583 244.291 178C243.975 178.4 243.566 178.717 243.066 178.95C242.566 179.167 241.991 179.275 241.341 179.275ZM253.007 183.725C252.391 183.725 251.916 183.558 251.582 183.225C251.266 182.908 251.107 182.433 251.107 181.8V168.425C251.107 167.808 251.266 167.342 251.582 167.025C251.916 166.692 252.374 166.525 252.957 166.525C253.574 166.525 254.041 166.692 254.357 167.025C254.674 167.342 254.832 167.808 254.832 168.425V170.125L254.557 169.15C254.807 168.35 255.307 167.708 256.057 167.225C256.824 166.725 257.699 166.475 258.682 166.475C259.749 166.475 260.682 166.733 261.482 167.25C262.299 167.767 262.932 168.5 263.382 169.45C263.832 170.4 264.057 171.533 264.057 172.85C264.057 174.167 263.832 175.308 263.382 176.275C262.932 177.242 262.307 177.983 261.507 178.5C260.707 179.017 259.766 179.275 258.682 179.275C257.716 179.275 256.857 179.042 256.107 178.575C255.357 178.092 254.849 177.467 254.582 176.7H254.882V181.8C254.882 182.433 254.716 182.908 254.382 183.225C254.066 183.558 253.607 183.725 253.007 183.725ZM257.557 176.45C258.091 176.45 258.557 176.317 258.957 176.05C259.374 175.783 259.691 175.392 259.907 174.875C260.141 174.342 260.257 173.667 260.257 172.85C260.257 171.633 260.007 170.742 259.507 170.175C259.007 169.592 258.357 169.3 257.557 169.3C257.024 169.3 256.549 169.425 256.132 169.675C255.732 169.925 255.416 170.317 255.182 170.85C254.949 171.367 254.832 172.033 254.832 172.85C254.832 174.067 255.082 174.975 255.582 175.575C256.082 176.158 256.741 176.45 257.557 176.45ZM277.498 179.275C276.598 179.275 275.79 179.1 275.073 178.75C274.357 178.4 273.798 177.925 273.398 177.325C272.998 176.725 272.798 176.05 272.798 175.3C272.798 174.4 273.032 173.692 273.498 173.175C273.965 172.642 274.723 172.267 275.773 172.05C276.823 171.817 278.215 171.7 279.948 171.7H281.273V173.65H279.973C279.123 173.65 278.432 173.7 277.898 173.8C277.382 173.883 277.007 174.033 276.773 174.25C276.557 174.467 276.448 174.767 276.448 175.15C276.448 175.617 276.607 176 276.923 176.3C277.257 176.6 277.732 176.75 278.348 176.75C278.832 176.75 279.257 176.642 279.623 176.425C280.007 176.192 280.307 175.883 280.523 175.5C280.74 175.1 280.848 174.65 280.848 174.15V171.275C280.848 170.542 280.682 170.025 280.348 169.725C280.015 169.408 279.448 169.25 278.648 169.25C278.198 169.25 277.707 169.308 277.173 169.425C276.657 169.525 276.082 169.7 275.448 169.95C275.082 170.117 274.757 170.158 274.473 170.075C274.19 169.975 273.973 169.808 273.823 169.575C273.673 169.325 273.598 169.058 273.598 168.775C273.598 168.475 273.682 168.192 273.848 167.925C274.015 167.642 274.29 167.433 274.673 167.3C275.457 166.983 276.19 166.767 276.873 166.65C277.573 166.533 278.215 166.475 278.798 166.475C280.082 166.475 281.132 166.667 281.948 167.05C282.782 167.417 283.407 167.992 283.823 168.775C284.24 169.542 284.448 170.533 284.448 171.75V177.3C284.448 177.917 284.298 178.392 283.998 178.725C283.698 179.058 283.265 179.225 282.698 179.225C282.132 179.225 281.69 179.058 281.373 178.725C281.073 178.392 280.923 177.917 280.923 177.3V176.375L281.098 176.525C280.998 177.092 280.782 177.583 280.448 178C280.132 178.4 279.723 178.717 279.223 178.95C278.723 179.167 278.148 179.275 277.498 179.275ZM293.289 179.275C292.139 179.275 291.173 179.083 290.389 178.7C289.623 178.317 289.048 177.758 288.664 177.025C288.298 176.292 288.114 175.367 288.114 174.25V169.55H287.064C286.598 169.55 286.231 169.425 285.964 169.175C285.714 168.925 285.589 168.583 285.589 168.15C285.589 167.683 285.714 167.333 285.964 167.1C286.231 166.85 286.598 166.725 287.064 166.725H288.114V164.825C288.114 164.192 288.281 163.717 288.614 163.4C288.948 163.067 289.414 162.9 290.014 162.9C290.631 162.9 291.098 163.067 291.414 163.4C291.731 163.717 291.889 164.192 291.889 164.825V166.725H294.264C294.731 166.725 295.089 166.85 295.339 167.1C295.589 167.333 295.714 167.683 295.714 168.15C295.714 168.583 295.589 168.925 295.339 169.175C295.089 169.425 294.731 169.55 294.264 169.55H291.889V174.1C291.889 174.8 292.048 175.325 292.364 175.675C292.698 176.025 293.223 176.2 293.939 176.2C294.189 176.2 294.423 176.175 294.639 176.125C294.856 176.075 295.056 176.042 295.239 176.025C295.473 176.008 295.664 176.083 295.814 176.25C295.964 176.4 296.039 176.742 296.039 177.275C296.039 177.675 295.973 178.025 295.839 178.325C295.706 178.625 295.473 178.842 295.139 178.975C294.923 179.058 294.623 179.125 294.239 179.175C293.873 179.242 293.556 179.275 293.289 179.275ZM299.322 179.225C298.689 179.225 298.205 179.058 297.872 178.725C297.539 178.392 297.372 177.917 297.372 177.3V168.425C297.372 167.808 297.53 167.342 297.847 167.025C298.18 166.692 298.639 166.525 299.222 166.525C299.822 166.525 300.28 166.692 300.597 167.025C300.914 167.342 301.072 167.808 301.072 168.425V169.725H300.822C301.022 168.725 301.464 167.95 302.147 167.4C302.83 166.85 303.714 166.542 304.797 166.475C305.214 166.442 305.53 166.55 305.747 166.8C305.98 167.033 306.105 167.425 306.122 167.975C306.155 168.492 306.047 168.9 305.797 169.2C305.564 169.5 305.164 169.683 304.597 169.75L304.022 169.8C303.072 169.883 302.364 170.158 301.897 170.625C301.447 171.092 301.222 171.767 301.222 172.65V177.3C301.222 177.917 301.055 178.392 300.722 178.725C300.405 179.058 299.939 179.225 299.322 179.225ZM309.575 179.2C308.958 179.2 308.483 179.025 308.15 178.675C307.833 178.308 307.675 177.8 307.675 177.15V168.6C307.675 167.933 307.833 167.425 308.15 167.075C308.483 166.708 308.958 166.525 309.575 166.525C310.175 166.525 310.633 166.708 310.95 167.075C311.283 167.425 311.45 167.933 311.45 168.6V177.15C311.45 177.8 311.291 178.308 310.975 178.675C310.658 179.025 310.191 179.2 309.575 179.2ZM309.575 164.475C308.875 164.475 308.333 164.317 307.95 164C307.583 163.667 307.4 163.2 307.4 162.6C307.4 161.983 307.583 161.517 307.95 161.2C308.333 160.867 308.875 160.7 309.575 160.7C310.275 160.7 310.808 160.867 311.175 161.2C311.541 161.517 311.725 161.983 311.725 162.6C311.725 163.2 311.541 163.667 311.175 164C310.808 164.317 310.275 164.475 309.575 164.475ZM321.939 179.275C320.956 179.275 320.081 179.033 319.314 178.55C318.564 178.05 318.064 177.392 317.814 176.575L318.089 175.75V177.3C318.089 177.917 317.931 178.392 317.614 178.725C317.297 179.058 316.839 179.225 316.239 179.225C315.639 179.225 315.172 179.058 314.839 178.725C314.522 178.392 314.364 177.917 314.364 177.3V163.075C314.364 162.442 314.522 161.967 314.839 161.65C315.172 161.317 315.647 161.15 316.264 161.15C316.864 161.15 317.322 161.317 317.639 161.65C317.972 161.967 318.139 162.442 318.139 163.075V169H317.839C318.106 168.25 318.614 167.642 319.364 167.175C320.114 166.708 320.972 166.475 321.939 166.475C323.022 166.475 323.964 166.733 324.764 167.25C325.564 167.767 326.189 168.5 326.639 169.45C327.089 170.4 327.314 171.533 327.314 172.85C327.314 174.167 327.089 175.308 326.639 176.275C326.189 177.242 325.556 177.983 324.739 178.5C323.939 179.017 323.006 179.275 321.939 179.275ZM320.814 176.45C321.347 176.45 321.814 176.317 322.214 176.05C322.631 175.783 322.947 175.392 323.164 174.875C323.397 174.342 323.514 173.667 323.514 172.85C323.514 171.633 323.264 170.742 322.764 170.175C322.264 169.592 321.614 169.3 320.814 169.3C320.281 169.3 319.806 169.425 319.389 169.675C318.989 169.925 318.672 170.317 318.439 170.85C318.206 171.367 318.089 172.033 318.089 172.85C318.089 174.067 318.339 174.975 318.839 175.575C319.339 176.158 319.997 176.45 320.814 176.45ZM334.148 179.275C333.115 179.275 332.256 179.083 331.573 178.7C330.89 178.317 330.381 177.742 330.048 176.975C329.731 176.192 329.573 175.225 329.573 174.075V168.425C329.573 167.792 329.731 167.317 330.048 167C330.381 166.683 330.848 166.525 331.448 166.525C332.048 166.525 332.515 166.683 332.848 167C333.181 167.317 333.348 167.792 333.348 168.425V174.175C333.348 174.908 333.498 175.458 333.798 175.825C334.098 176.175 334.573 176.35 335.223 176.35C335.94 176.35 336.523 176.1 336.973 175.6C337.44 175.083 337.673 174.408 337.673 173.575V168.425C337.673 167.792 337.831 167.317 338.148 167C338.481 166.683 338.948 166.525 339.548 166.525C340.165 166.525 340.631 166.683 340.948 167C341.281 167.317 341.448 167.792 341.448 168.425V177.3C341.448 178.583 340.84 179.225 339.623 179.225C339.023 179.225 338.565 179.058 338.248 178.725C337.931 178.392 337.773 177.917 337.773 177.3V175.625L338.148 176.6C337.781 177.45 337.256 178.108 336.573 178.575C335.89 179.042 335.081 179.275 334.148 179.275ZM350.394 179.275C349.244 179.275 348.277 179.083 347.494 178.7C346.727 178.317 346.152 177.758 345.769 177.025C345.402 176.292 345.219 175.367 345.219 174.25V169.55H344.169C343.702 169.55 343.336 169.425 343.069 169.175C342.819 168.925 342.694 168.583 342.694 168.15C342.694 167.683 342.819 167.333 343.069 167.1C343.336 166.85 343.702 166.725 344.169 166.725H345.219V164.825C345.219 164.192 345.386 163.717 345.719 163.4C346.052 163.067 346.519 162.9 347.119 162.9C347.736 162.9 348.202 163.067 348.519 163.4C348.836 163.717 348.994 164.192 348.994 164.825V166.725H351.369C351.836 166.725 352.194 166.85 352.444 167.1C352.694 167.333 352.819 167.683 352.819 168.15C352.819 168.583 352.694 168.925 352.444 169.175C352.194 169.425 351.836 169.55 351.369 169.55H348.994V174.1C348.994 174.8 349.152 175.325 349.469 175.675C349.802 176.025 350.327 176.2 351.044 176.2C351.294 176.2 351.527 176.175 351.744 176.125C351.961 176.075 352.161 176.042 352.344 176.025C352.577 176.008 352.769 176.083 352.919 176.25C353.069 176.4 353.144 176.742 353.144 177.275C353.144 177.675 353.077 178.025 352.944 178.325C352.811 178.625 352.577 178.842 352.244 178.975C352.027 179.058 351.727 179.125 351.344 179.175C350.977 179.242 350.661 179.275 350.394 179.275ZM356.79 179.125C356.123 179.125 355.59 178.925 355.19 178.525C354.806 178.125 354.615 177.608 354.615 176.975C354.615 176.358 354.806 175.858 355.19 175.475C355.59 175.075 356.123 174.875 356.79 174.875C357.456 174.875 357.973 175.075 358.34 175.475C358.723 175.858 358.915 176.358 358.915 176.975C358.915 177.608 358.723 178.125 358.34 178.525C357.973 178.925 357.456 179.125 356.79 179.125Z" fill="white"/>
<rect x="26" y="50" width="100" height="44" rx="22" fill="white"/>
<path d="M49.47 81.27C48.71 81.27 48.13 81.06 47.73 80.64C47.33 80.22 47.13 79.63 47.13 78.87V61.98C47.13 61.22 47.33 60.63 47.73 60.21C48.13 59.79 48.71 59.58 49.47 59.58C50.21 59.58 50.78 59.79 51.18 60.21C51.58 60.63 51.78 61.22 51.78 61.98V68.34H61.62V61.98C61.62 61.22 61.82 60.63 62.22 60.21C62.62 59.79 63.19 59.58 63.93 59.58C64.69 59.58 65.27 59.79 65.67 60.21C66.07 60.63 66.27 61.22 66.27 61.98V78.87C66.27 79.63 66.07 80.22 65.67 80.64C65.27 81.06 64.69 81.27 63.93 81.27C63.19 81.27 62.62 81.06 62.22 80.64C61.82 80.22 61.62 79.63 61.62 78.87V72.21H51.78V78.87C51.78 79.63 51.58 80.22 51.18 80.64C50.8 81.06 50.23 81.27 49.47 81.27ZM72.4282 81.24C71.6882 81.24 71.1182 81.03 70.7182 80.61C70.3382 80.17 70.1482 79.56 70.1482 78.78V68.52C70.1482 67.72 70.3382 67.11 70.7182 66.69C71.1182 66.25 71.6882 66.03 72.4282 66.03C73.1482 66.03 73.6982 66.25 74.0782 66.69C74.4782 67.11 74.6782 67.72 74.6782 68.52V78.78C74.6782 79.56 74.4882 80.17 74.1082 80.61C73.7282 81.03 73.1682 81.24 72.4282 81.24ZM72.4282 63.57C71.5882 63.57 70.9382 63.38 70.4782 63C70.0382 62.6 69.8182 62.04 69.8182 61.32C69.8182 60.58 70.0382 60.02 70.4782 59.64C70.9382 59.24 71.5882 59.04 72.4282 59.04C73.2682 59.04 73.9082 59.24 74.3482 59.64C74.7882 60.02 75.0082 60.58 75.0082 61.32C75.0082 62.04 74.7882 62.6 74.3482 63C73.9082 63.38 73.2682 63.57 72.4282 63.57ZM80.4555 81.27C79.7155 81.27 79.1455 81.07 78.7455 80.67C78.3655 80.27 78.1755 79.7 78.1755 78.96V68.31C78.1755 67.57 78.3655 67.01 78.7455 66.63C79.1455 66.23 79.6955 66.03 80.3955 66.03C81.1155 66.03 81.6655 66.23 82.0455 66.63C82.4255 67.01 82.6155 67.57 82.6155 68.31V70.02L82.2855 69.03C82.7455 68.05 83.4255 67.3 84.3255 66.78C85.2455 66.24 86.2855 65.97 87.4455 65.97C88.6255 65.97 89.5955 66.2 90.3555 66.66C91.1155 67.1 91.6855 67.78 92.0655 68.7C92.4455 69.6 92.6355 70.75 92.6355 72.15V78.96C92.6355 79.7 92.4355 80.27 92.0355 80.67C91.6555 81.07 91.0955 81.27 90.3555 81.27C89.6355 81.27 89.0755 81.07 88.6755 80.67C88.2955 80.27 88.1055 79.7 88.1055 78.96V72.36C88.1055 71.34 87.9155 70.61 87.5355 70.17C87.1755 69.71 86.6155 69.48 85.8555 69.48C84.8955 69.48 84.1255 69.78 83.5455 70.38C82.9855 70.98 82.7055 71.78 82.7055 72.78V78.96C82.7055 80.5 81.9555 81.27 80.4555 81.27ZM103.247 81.33C101.867 81.33 100.707 81.1 99.7673 80.64C98.8473 80.18 98.1573 79.51 97.6973 78.63C97.2573 77.75 97.0373 76.64 97.0373 75.3V69.66H95.7773C95.2173 69.66 94.7773 69.51 94.4573 69.21C94.1573 68.91 94.0073 68.5 94.0073 67.98C94.0073 67.42 94.1573 67 94.4573 66.72C94.7773 66.42 95.2173 66.27 95.7773 66.27H97.0373V63.99C97.0373 63.23 97.2373 62.66 97.6373 62.28C98.0373 61.88 98.5973 61.68 99.3173 61.68C100.057 61.68 100.617 61.88 100.997 62.28C101.377 62.66 101.567 63.23 101.567 63.99V66.27H104.417C104.977 66.27 105.407 66.42 105.707 66.72C106.007 67 106.157 67.42 106.157 67.98C106.157 68.5 106.007 68.91 105.707 69.21C105.407 69.51 104.977 69.66 104.417 69.66H101.567V75.12C101.567 75.96 101.757 76.59 102.137 77.01C102.537 77.43 103.167 77.64 104.027 77.64C104.327 77.64 104.607 77.61 104.867 77.55C105.127 77.49 105.367 77.45 105.587 77.43C105.867 77.41 106.097 77.5 106.277 77.7C106.457 77.88 106.547 78.29 106.547 78.93C106.547 79.41 106.467 79.83 106.307 80.19C106.147 80.55 105.867 80.81 105.467 80.97C105.207 81.07 104.847 81.15 104.387 81.21C103.947 81.29 103.567 81.33 103.247 81.33Z" fill="#1A1A1B"/>
<defs>
<clipPath id="clip0_18_695">
<rect width="426" height="395" fill="white" transform="translate(0 306)"/>
</clipPath>
<clipPath id="clip1_18_695">
<rect width="682" height="395" fill="white" transform="translate(-128 306)"/>
</clipPath>
</defs>
</svg>
