<svg width="429" height="696" viewBox="0 0 429 696" fill="none" xmlns="http://www.w3.org/2000/svg">
<rect x="2" width="426.283" height="696" rx="25" fill="#1A1A1B"/>
<rect x="2" y="301" width="426.283" height="394.69" rx="25" fill="#EAD9D5"/>
<g clip-path="url(#clip0_18_234)">
<path d="M463.449 520.198C463.987 520.341 464.442 520.712 464.712 521.231C464.983 521.749 465.047 522.373 464.892 522.964L404.033 753.509C403.877 754.1 403.513 754.61 403.022 754.928C402.53 755.245 401.952 755.344 401.413 755.203L138.004 685.68C137.466 685.537 137.012 685.166 136.741 684.647C136.471 684.129 136.406 683.505 136.562 682.914L187.651 489.376C187.807 488.785 188.171 488.275 188.662 487.958C189.154 487.64 189.732 487.541 190.271 487.682L341.45 527.584C342.985 527.99 344.63 527.753 346.064 526.92L388.998 502.002C390.105 501.358 391.376 501.175 392.562 501.488L463.449 520.198Z" fill="#1A1A1B"/>
<path d="M179.133 603.034L179.128 603.035C178.173 603.215 177.213 603.161 176.313 602.884L152.467 396.985C151.983 392.769 153.074 388.433 155.497 384.939C157.92 381.448 161.451 379.115 165.285 378.402C165.286 378.402 165.286 378.402 165.286 378.401L323.888 349.088C327.716 348.385 331.564 349.344 334.606 351.756C337.653 354.172 339.67 357.876 340.163 362.087L179.133 603.034ZM179.133 603.034L364.109 568.846L340.163 362.089L179.133 603.034Z" stroke="#1A1A1B" stroke-width="3"/>
<path d="M324.014 367.545C321.274 365.374 317.809 364.511 314.362 365.145L227.445 381.209C210.9 384.288 195.81 394.318 185.519 409.151C175.226 423.986 170.599 442.381 172.653 460.288L188.975 601.215L351.532 571.171L329.028 376.863C329.027 376.862 329.027 376.862 329.027 376.861C328.581 373.06 326.759 369.721 324.014 367.545Z" stroke="#1A1A1B" stroke-width="3"/>
<path d="M213.855 580.387L322.97 560.22C323.437 560.133 323.912 560.145 324.366 560.258C324.821 560.37 325.246 560.579 325.618 560.874C325.99 561.168 326.302 561.542 326.535 561.974C326.767 562.406 326.917 562.887 326.976 563.391C327.034 563.894 327 564.41 326.874 564.908C326.749 565.406 326.536 565.877 326.246 566.293C325.956 566.71 325.596 567.065 325.186 567.337C324.776 567.609 324.325 567.793 323.857 567.878L214.742 588.046C214.275 588.133 213.801 588.12 213.346 588.008C212.892 587.896 212.466 587.686 212.094 587.392C211.722 587.097 211.411 586.723 211.178 586.291C210.945 585.86 210.795 585.378 210.737 584.875C210.679 584.371 210.713 583.856 210.838 583.358C210.963 582.86 211.177 582.389 211.467 581.972C211.756 581.555 212.116 581.201 212.526 580.929C212.936 580.657 213.388 580.473 213.855 580.387Z" fill="#E4E4E4"/>
<path d="M206.948 519.864L206.945 519.865C206.684 519.913 206.42 520.018 206.173 520.182C205.925 520.346 205.7 520.566 205.514 520.833L204.285 519.978L205.514 520.833C205.329 521.1 205.19 521.405 205.108 521.731C205.026 522.056 205.005 522.39 205.042 522.711C205.079 523.033 205.174 523.331 205.314 523.591C205.454 523.85 205.635 524.065 205.843 524.229L204.913 525.403L205.843 524.229C206.049 524.393 206.281 524.506 206.525 524.566C206.769 524.627 207.028 524.635 207.289 524.586L207.292 524.586L316.404 504.419C316.405 504.419 316.405 504.419 316.405 504.419C316.932 504.32 317.457 503.99 317.832 503.449C318.209 502.906 318.379 502.227 318.303 501.573C318.227 500.921 317.921 500.388 317.504 500.057C317.093 499.731 316.58 499.602 316.061 499.697C316.061 499.697 316.061 499.697 316.06 499.697L206.948 519.864Z" fill="#1A1A1B" stroke="#1A1A1B" stroke-width="3"/>
<path d="M205.194 504.727L205.191 504.727C204.93 504.775 204.667 504.88 204.42 505.044C204.173 505.208 203.948 505.427 203.762 505.694C203.577 505.96 203.438 506.265 203.357 506.59C203.275 506.915 203.253 507.249 203.29 507.57C203.328 507.891 203.422 508.189 203.562 508.448C203.702 508.707 203.883 508.921 204.09 509.085C204.297 509.248 204.528 509.361 204.772 509.421C205.015 509.482 205.274 509.49 205.534 509.441L205.537 509.441L314.652 489.273L314.654 489.273C314.915 489.225 315.178 489.12 315.425 488.956C315.672 488.792 315.898 488.573 316.083 488.306C316.268 488.04 316.407 487.735 316.489 487.41C316.57 487.085 316.592 486.752 316.555 486.431C316.518 486.109 316.423 485.812 316.283 485.552C316.144 485.293 315.962 485.079 315.755 484.915C315.549 484.752 315.317 484.639 315.074 484.579C314.83 484.519 314.572 484.51 314.311 484.559L314.308 484.56L205.194 504.727Z" fill="#1A1A1B" stroke="#1A1A1B" stroke-width="3"/>
<path d="M265.254 478.157L265.255 478.156L312.554 469.414C313.073 469.319 313.587 469.447 313.998 469.773C314.415 470.104 314.722 470.638 314.798 471.29C314.873 471.944 314.703 472.623 314.326 473.167C313.951 473.708 313.425 474.038 312.898 474.136L265.254 478.157ZM265.254 478.157C264.993 478.205 264.73 478.31 264.483 478.474C264.235 478.639 264.01 478.859 263.825 479.125C263.639 479.392 263.5 479.697 263.419 480.023C263.337 480.348 263.316 480.682 263.353 481.003C263.39 481.324 263.485 481.622 263.624 481.882L262.306 482.593L263.624 481.882C263.764 482.141 263.946 482.356 264.153 482.52C264.359 482.684 264.591 482.797 264.835 482.858C265.079 482.918 265.337 482.926 265.598 482.878L265.599 482.878L312.898 474.136L265.254 478.157Z" fill="#1A1A1B" stroke="#1A1A1B" stroke-width="3"/>
<path d="M199.767 457.869L199.766 457.869C199.504 457.917 199.241 458.022 198.994 458.187C198.747 458.351 198.521 458.571 198.336 458.838C198.151 459.105 198.012 459.41 197.93 459.735C197.849 460.06 197.827 460.394 197.864 460.715C197.902 461.037 197.996 461.335 198.136 461.594C198.276 461.854 198.457 462.068 198.664 462.232C198.871 462.396 199.103 462.509 199.346 462.57C199.59 462.63 199.849 462.639 200.11 462.59L200.111 462.59L309.223 442.423C309.223 442.423 309.224 442.423 309.224 442.423C309.751 442.325 310.275 441.995 310.65 441.453C311.027 440.91 311.196 440.231 311.121 439.578C311.045 438.926 310.739 438.393 310.322 438.062C309.912 437.736 309.399 437.607 308.88 437.702C308.88 437.702 308.879 437.702 308.879 437.702L199.767 457.869Z" fill="#1A1A1B" stroke="#1A1A1B" stroke-width="3"/>
<path d="M198.013 442.731L198.009 442.732C197.747 442.78 197.483 442.884 197.236 443.048C196.988 443.212 196.762 443.432 196.576 443.699C196.39 443.966 196.251 444.272 196.169 444.598C196.087 444.923 196.065 445.258 196.102 445.579C196.14 445.901 196.234 446.2 196.375 446.46L195.057 447.171L196.375 446.46C196.515 446.719 196.697 446.934 196.904 447.098C197.111 447.262 197.344 447.375 197.588 447.435C197.832 447.495 198.091 447.503 198.353 447.454L198.357 447.453L307.47 427.286C307.471 427.286 307.471 427.286 307.471 427.286C307.998 427.187 308.523 426.857 308.898 426.316C309.275 425.773 309.445 425.093 309.369 424.44C309.293 423.788 308.987 423.255 308.57 422.924C308.159 422.598 307.646 422.469 307.127 422.564C307.127 422.564 307.127 422.564 307.126 422.564L198.013 442.731Z" fill="#1A1A1B" stroke="#1A1A1B" stroke-width="3"/>
<path d="M258.075 416.161L258.075 416.161C257.813 416.21 257.55 416.315 257.303 416.479C257.055 416.643 256.83 416.863 256.645 417.13C256.46 417.397 256.321 417.702 256.239 418.027C256.157 418.353 256.136 418.686 256.173 419.008L254.686 419.18L256.173 419.008C256.21 419.329 256.305 419.627 256.445 419.887C256.585 420.146 256.766 420.361 256.973 420.525C257.18 420.689 257.411 420.802 257.655 420.862C257.899 420.923 258.157 420.931 258.419 420.883L258.419 420.883L305.718 412.141C305.718 412.141 305.718 412.141 305.718 412.141C305.718 412.141 305.718 412.141 305.719 412.14C306.246 412.043 306.771 411.713 307.147 411.171C307.523 410.628 307.694 409.948 307.618 409.294C307.542 408.643 307.236 408.109 306.819 407.778C306.407 407.452 305.894 407.323 305.375 407.419C305.374 407.419 305.374 407.419 305.374 407.419L258.075 416.161Z" fill="#1A1A1B" stroke="#1A1A1B" stroke-width="3"/>
<path d="M307.955 609.512L361.1 638.552C361.328 638.676 361.529 638.848 361.691 639.06C361.854 639.271 361.975 639.517 362.048 639.784C362.12 640.051 362.143 640.333 362.115 640.614C362.086 640.895 362.007 641.17 361.881 641.423C361.756 641.676 361.587 641.902 361.384 642.088C361.181 642.274 360.948 642.416 360.698 642.507C360.448 642.597 360.187 642.634 359.928 642.616C359.67 642.597 359.42 642.523 359.192 642.398L306.048 613.358C305.82 613.235 305.618 613.062 305.456 612.85C305.293 612.639 305.171 612.393 305.099 612.126C305.026 611.859 305.003 611.577 305.032 611.295C305.06 611.014 305.139 610.739 305.265 610.486C305.39 610.233 305.559 610.007 305.763 609.821C305.966 609.635 306.199 609.493 306.449 609.402C306.699 609.312 306.961 609.275 307.219 609.294C307.478 609.312 307.728 609.387 307.955 609.512Z" fill="#E4E4E4"/>
<path d="M311.728 601.905L364.872 630.945C365.332 631.196 365.672 631.64 365.818 632.179C365.965 632.718 365.904 633.307 365.651 633.818C365.398 634.328 364.973 634.718 364.468 634.901C363.964 635.085 363.423 635.047 362.963 634.795L309.818 605.756C309.359 605.504 309.018 605.061 308.872 604.522C308.726 603.983 308.786 603.394 309.039 602.883C309.292 602.372 309.718 601.982 310.222 601.799C310.726 601.616 311.268 601.654 311.728 601.905Z" fill="#E4E4E4"/>
<path d="M345.603 610.754L368.641 623.342C368.868 623.466 369.069 623.639 369.231 623.851C369.393 624.062 369.514 624.308 369.586 624.575C369.658 624.841 369.681 625.123 369.652 625.404C369.623 625.685 369.544 625.959 369.419 626.212C369.294 626.464 369.125 626.69 368.922 626.876C368.72 627.061 368.487 627.204 368.237 627.294C367.988 627.385 367.727 627.423 367.469 627.404C367.211 627.386 366.961 627.313 366.733 627.189L343.696 614.6C343.468 614.476 343.267 614.304 343.104 614.092C342.941 613.881 342.819 613.635 342.747 613.368C342.674 613.101 342.651 612.819 342.68 612.537C342.708 612.256 342.787 611.981 342.913 611.728C343.038 611.475 343.207 611.249 343.411 611.063C343.614 610.877 343.847 610.735 344.097 610.644C344.347 610.554 344.609 610.517 344.867 610.536C345.126 610.554 345.376 610.629 345.603 610.754Z" fill="#E4E4E4"/>
<path d="M323.394 578.375L376.538 607.414C376.766 607.539 376.967 607.712 377.129 607.923C377.292 608.135 377.413 608.381 377.485 608.648C377.631 609.187 377.571 609.776 377.318 610.287C377.065 610.798 376.639 611.187 376.135 611.371C375.631 611.554 375.089 611.516 374.629 611.265L321.485 582.225C321.025 581.974 320.685 581.53 320.539 580.991C320.392 580.452 320.452 579.863 320.706 579.352C320.959 578.842 321.384 578.452 321.888 578.268C322.393 578.085 322.934 578.123 323.394 578.375Z" fill="#E4E4E4"/>
<path d="M327.164 570.772L380.308 599.811C380.536 599.935 380.737 600.108 380.9 600.319C381.063 600.531 381.184 600.777 381.257 601.044C381.329 601.31 381.352 601.593 381.323 601.874C381.295 602.155 381.216 602.43 381.09 602.683C380.965 602.936 380.796 603.162 380.593 603.348C380.39 603.533 380.156 603.676 379.907 603.766C379.657 603.857 379.395 603.894 379.137 603.875C378.879 603.857 378.629 603.783 378.401 603.658L325.257 574.618C325.029 574.494 324.828 574.321 324.666 574.11C324.503 573.898 324.382 573.652 324.31 573.386C324.237 573.119 324.215 572.837 324.243 572.556C324.272 572.275 324.351 572 324.477 571.747C324.602 571.495 324.771 571.269 324.974 571.083C325.177 570.897 325.41 570.755 325.659 570.664C325.909 570.574 326.17 570.537 326.428 570.555C326.686 570.573 326.936 570.647 327.164 570.772Z" fill="#E4E4E4"/>
<path d="M361.042 579.616L384.079 592.205C384.539 592.456 384.88 592.9 385.026 593.438C385.172 593.977 385.112 594.567 384.859 595.077C384.605 595.588 384.18 595.978 383.676 596.161C383.172 596.345 382.63 596.306 382.17 596.055L359.133 583.467C358.673 583.216 358.333 582.772 358.186 582.233C358.04 581.694 358.1 581.105 358.354 580.594C358.607 580.084 359.032 579.694 359.536 579.51C360.041 579.327 360.582 579.365 361.042 579.616Z" fill="#E4E4E4"/>
<path d="M449.209 581.212C449.476 581.283 449.725 581.41 449.942 581.587C450.159 581.764 450.34 581.987 450.474 582.244C450.608 582.501 450.693 582.786 450.723 583.084C450.754 583.381 450.73 583.685 450.653 583.977C450.631 584.061 405.243 755.745 405.243 755.745C405.044 756.275 404.674 756.716 404.205 756.983C403.737 757.25 403.201 757.324 402.702 757.192L119.744 682.51C119.244 682.379 118.815 682.05 118.539 681.586C118.263 681.122 118.159 680.557 118.248 679.997L145.916 503.815C145.966 503.494 146.078 503.186 146.243 502.91C146.409 502.634 146.625 502.396 146.877 502.212C147.129 502.027 147.412 501.901 147.707 501.841C148.002 501.782 148.303 501.791 148.589 501.868L449.209 581.212Z" fill="#1A1A1B"/>
<path d="M426.733 585.448C429.601 586.215 432.024 588.189 433.477 590.945C434.93 593.701 435.297 597.017 434.499 600.176L399.019 733.151C398.615 734.733 397.929 736.227 397.001 737.547C396.073 738.867 394.921 739.986 393.612 740.84C392.303 741.694 390.863 742.266 389.374 742.523C387.886 742.779 386.378 742.716 384.94 742.336L205.32 694.928C184.715 689.506 167.029 675.938 155.645 656.82C144.26 637.702 139.977 614.376 143.615 591.304L153.622 527.586C153.891 525.868 154.49 524.215 155.379 522.734C156.268 521.253 157.427 519.979 158.781 518.993C160.134 518.008 161.651 517.334 163.233 517.016C164.814 516.699 166.425 516.743 167.958 517.148L426.733 585.448ZM151.476 512.798L151.712 512.036L151.679 512.027L151.476 512.798Z" fill="#EAD9D5"/>
<path d="M321.956 664.434L391.539 682.799C392.258 682.989 393.03 682.858 393.686 682.434C394.341 682.01 394.827 681.329 395.035 680.54C395.243 679.751 395.157 678.919 394.796 678.227C394.435 677.535 393.828 677.039 393.109 676.849L323.527 658.484C320.045 657.508 318.411 663.556 321.956 664.434Z" fill="#1A1A1B"/>
<path d="M224.113 655.256L387.431 698.362C388.15 698.551 388.922 698.42 389.578 697.996C390.233 697.572 390.719 696.891 390.927 696.102C391.135 695.313 391.049 694.481 390.688 693.789C390.327 693.097 389.72 692.601 389.001 692.412L225.684 649.306C222.202 648.33 220.567 654.378 224.113 655.256Z" fill="#1A1A1B"/>
</g>
<path d="M31.725 145.225C31.0917 145.225 30.6083 145.05 30.275 144.7C29.9417 144.35 29.775 143.858 29.775 143.225V129.15C29.775 128.517 29.9417 128.025 30.275 127.675C30.6083 127.325 31.0917 127.15 31.725 127.15C32.3417 127.15 32.8167 127.325 33.15 127.675C33.4833 128.025 33.65 128.517 33.65 129.15V134.45H41.85V129.15C41.85 128.517 42.0167 128.025 42.35 127.675C42.6833 127.325 43.1583 127.15 43.775 127.15C44.4083 127.15 44.8917 127.325 45.225 127.675C45.5583 128.025 45.725 128.517 45.725 129.15V143.225C45.725 143.858 45.5583 144.35 45.225 144.7C44.8917 145.05 44.4083 145.225 43.775 145.225C43.1583 145.225 42.6833 145.05 42.35 144.7C42.0167 144.35 41.85 143.858 41.85 143.225V137.675H33.65V143.225C33.65 143.858 33.4833 144.35 33.15 144.7C32.8333 145.05 32.3583 145.225 31.725 145.225ZM53.1068 145.275C52.2068 145.275 51.3985 145.1 50.6818 144.75C49.9652 144.4 49.4068 143.925 49.0068 143.325C48.6068 142.725 48.4068 142.05 48.4068 141.3C48.4068 140.4 48.6402 139.692 49.1068 139.175C49.5735 138.642 50.3318 138.267 51.3818 138.05C52.4318 137.817 53.8235 137.7 55.5568 137.7H56.8818V139.65H55.5818C54.7318 139.65 54.0402 139.7 53.5068 139.8C52.9902 139.883 52.6152 140.033 52.3818 140.25C52.1652 140.467 52.0568 140.767 52.0568 141.15C52.0568 141.617 52.2152 142 52.5318 142.3C52.8652 142.6 53.3402 142.75 53.9568 142.75C54.4402 142.75 54.8652 142.642 55.2318 142.425C55.6152 142.192 55.9152 141.883 56.1318 141.5C56.3485 141.1 56.4568 140.65 56.4568 140.15V137.275C56.4568 136.542 56.2902 136.025 55.9568 135.725C55.6235 135.408 55.0568 135.25 54.2568 135.25C53.8068 135.25 53.3152 135.308 52.7818 135.425C52.2652 135.525 51.6902 135.7 51.0568 135.95C50.6902 136.117 50.3652 136.158 50.0818 136.075C49.7985 135.975 49.5818 135.808 49.4318 135.575C49.2818 135.325 49.2068 135.058 49.2068 134.775C49.2068 134.475 49.2902 134.192 49.4568 133.925C49.6235 133.642 49.8985 133.433 50.2818 133.3C51.0652 132.983 51.7985 132.767 52.4818 132.65C53.1818 132.533 53.8235 132.475 54.4068 132.475C55.6902 132.475 56.7402 132.667 57.5568 133.05C58.3902 133.417 59.0152 133.992 59.4318 134.775C59.8485 135.542 60.0568 136.533 60.0568 137.75V143.3C60.0568 143.917 59.9068 144.392 59.6068 144.725C59.3068 145.058 58.8735 145.225 58.3068 145.225C57.7402 145.225 57.2985 145.058 56.9818 144.725C56.6818 144.392 56.5318 143.917 56.5318 143.3V142.375L56.7068 142.525C56.6068 143.092 56.3902 143.583 56.0568 144C55.7402 144.4 55.3318 144.717 54.8318 144.95C54.3318 145.167 53.7568 145.275 53.1068 145.275ZM64.7729 145.225C64.1562 145.225 63.6812 145.058 63.3479 144.725C63.0312 144.392 62.8729 143.917 62.8729 143.3V134.425C62.8729 133.808 63.0312 133.342 63.3479 133.025C63.6812 132.692 64.1395 132.525 64.7229 132.525C65.3229 132.525 65.7812 132.692 66.0979 133.025C66.4145 133.342 66.5729 133.808 66.5729 134.425V135.85L66.2979 135.025C66.6812 134.208 67.2479 133.583 67.9979 133.15C68.7645 132.7 69.6312 132.475 70.5979 132.475C71.5812 132.475 72.3895 132.667 73.0229 133.05C73.6562 133.417 74.1312 133.983 74.4479 134.75C74.7645 135.5 74.9229 136.458 74.9229 137.625V143.3C74.9229 143.917 74.7562 144.392 74.4229 144.725C74.1062 145.058 73.6395 145.225 73.0229 145.225C72.4229 145.225 71.9562 145.058 71.6229 144.725C71.3062 144.392 71.1479 143.917 71.1479 143.3V137.8C71.1479 136.95 70.9895 136.342 70.6729 135.975C70.3729 135.592 69.9062 135.4 69.2729 135.4C68.4729 135.4 67.8312 135.65 67.3479 136.15C66.8812 136.65 66.6479 137.317 66.6479 138.15V143.3C66.6479 144.583 66.0229 145.225 64.7729 145.225ZM80.9689 149.725C80.5356 149.725 80.1773 149.608 79.8939 149.375C79.6106 149.142 79.4439 148.833 79.3939 148.45C79.3439 148.083 79.4106 147.692 79.5939 147.275L81.2689 143.575V145.125L76.8439 134.975C76.6773 134.542 76.6189 134.142 76.6689 133.775C76.7356 133.392 76.9189 133.092 77.2189 132.875C77.5356 132.642 77.9689 132.525 78.5189 132.525C78.9689 132.525 79.3273 132.633 79.5939 132.85C79.8773 133.05 80.1356 133.442 80.3689 134.025L83.3189 141.525H82.5189L85.5689 134C85.8023 133.433 86.0606 133.05 86.3439 132.85C86.6439 132.633 87.0439 132.525 87.5439 132.525C87.9773 132.525 88.3189 132.642 88.5689 132.875C88.8356 133.092 88.9939 133.383 89.0439 133.75C89.1106 134.117 89.0439 134.517 88.8439 134.95L82.9689 148.275C82.7189 148.842 82.4356 149.225 82.1189 149.425C81.8189 149.625 81.4356 149.725 80.9689 149.725ZM94.8549 145.275C93.9549 145.275 93.1465 145.1 92.4299 144.75C91.7132 144.4 91.1549 143.925 90.7549 143.325C90.3549 142.725 90.1549 142.05 90.1549 141.3C90.1549 140.4 90.3882 139.692 90.8549 139.175C91.3215 138.642 92.0799 138.267 93.1299 138.05C94.1799 137.817 95.5715 137.7 97.3049 137.7H98.6299V139.65H97.3299C96.4799 139.65 95.7882 139.7 95.2549 139.8C94.7382 139.883 94.3632 140.033 94.1299 140.25C93.9132 140.467 93.8049 140.767 93.8049 141.15C93.8049 141.617 93.9632 142 94.2799 142.3C94.6132 142.6 95.0882 142.75 95.7049 142.75C96.1882 142.75 96.6132 142.642 96.9799 142.425C97.3632 142.192 97.6632 141.883 97.8799 141.5C98.0965 141.1 98.2049 140.65 98.2049 140.15V137.275C98.2049 136.542 98.0382 136.025 97.7049 135.725C97.3716 135.408 96.8049 135.25 96.0049 135.25C95.5549 135.25 95.0632 135.308 94.5299 135.425C94.0132 135.525 93.4382 135.7 92.8049 135.95C92.4382 136.117 92.1132 136.158 91.8299 136.075C91.5465 135.975 91.3299 135.808 91.1799 135.575C91.0299 135.325 90.9549 135.058 90.9549 134.775C90.9549 134.475 91.0382 134.192 91.2049 133.925C91.3715 133.642 91.6465 133.433 92.0299 133.3C92.8132 132.983 93.5465 132.767 94.2299 132.65C94.9299 132.533 95.5715 132.475 96.1549 132.475C97.4382 132.475 98.4882 132.667 99.3049 133.05C100.138 133.417 100.763 133.992 101.18 134.775C101.597 135.542 101.805 136.533 101.805 137.75V143.3C101.805 143.917 101.655 144.392 101.355 144.725C101.055 145.058 100.622 145.225 100.055 145.225C99.4882 145.225 99.0466 145.058 98.7299 144.725C98.4299 144.392 98.2799 143.917 98.2799 143.3V142.375L98.4549 142.525C98.3549 143.092 98.1382 143.583 97.8049 144C97.4882 144.4 97.0799 144.717 96.5799 144.95C96.0799 145.167 95.5049 145.275 94.8549 145.275ZM113.553 145.225C112.937 145.225 112.462 145.058 112.128 144.725C111.812 144.392 111.653 143.917 111.653 143.3V134.425C111.653 133.808 111.812 133.342 112.128 133.025C112.462 132.692 112.92 132.525 113.503 132.525C114.103 132.525 114.562 132.692 114.878 133.025C115.195 133.342 115.353 133.808 115.353 134.425V136.025L115.078 135.025C115.412 134.258 115.928 133.642 116.628 133.175C117.328 132.708 118.153 132.475 119.103 132.475C120.053 132.475 120.845 132.7 121.478 133.15C122.112 133.6 122.562 134.292 122.828 135.225H122.478C122.845 134.375 123.403 133.708 124.153 133.225C124.92 132.725 125.795 132.475 126.778 132.475C127.728 132.475 128.503 132.667 129.103 133.05C129.72 133.417 130.178 133.983 130.478 134.75C130.778 135.5 130.928 136.458 130.928 137.625V143.3C130.928 143.917 130.762 144.392 130.428 144.725C130.112 145.058 129.653 145.225 129.053 145.225C128.437 145.225 127.962 145.058 127.628 144.725C127.312 144.392 127.153 143.917 127.153 143.3V137.75C127.153 136.933 127.02 136.342 126.753 135.975C126.503 135.592 126.07 135.4 125.453 135.4C124.737 135.4 124.178 135.65 123.778 136.15C123.378 136.65 123.178 137.358 123.178 138.275V143.3C123.178 143.917 123.012 144.392 122.678 144.725C122.362 145.058 121.903 145.225 121.303 145.225C120.703 145.225 120.237 145.058 119.903 144.725C119.57 144.392 119.403 143.917 119.403 143.3V137.75C119.403 136.933 119.27 136.342 119.003 135.975C118.753 135.592 118.32 135.4 117.703 135.4C116.987 135.4 116.428 135.65 116.028 136.15C115.628 136.65 115.428 137.358 115.428 138.275V143.3C115.428 144.583 114.803 145.225 113.553 145.225ZM140.195 145.275C138.745 145.275 137.495 145.017 136.445 144.5C135.412 143.967 134.612 143.225 134.045 142.275C133.495 141.308 133.22 140.175 133.22 138.875C133.22 137.608 133.487 136.5 134.02 135.55C134.553 134.583 135.295 133.833 136.245 133.3C137.212 132.75 138.303 132.475 139.52 132.475C140.403 132.475 141.203 132.625 141.92 132.925C142.637 133.208 143.253 133.625 143.77 134.175C144.287 134.708 144.678 135.367 144.945 136.15C145.212 136.917 145.345 137.775 145.345 138.725C145.345 139.042 145.245 139.283 145.045 139.45C144.845 139.6 144.553 139.675 144.17 139.675H136.32V137.725H142.62L142.22 138.075C142.22 137.392 142.12 136.825 141.92 136.375C141.72 135.908 141.428 135.558 141.045 135.325C140.678 135.092 140.22 134.975 139.67 134.975C139.053 134.975 138.528 135.117 138.095 135.4C137.662 135.683 137.328 136.092 137.095 136.625C136.862 137.158 136.745 137.8 136.745 138.55V138.75C136.745 140.017 137.037 140.95 137.62 141.55C138.22 142.15 139.103 142.45 140.27 142.45C140.67 142.45 141.128 142.4 141.645 142.3C142.162 142.2 142.645 142.042 143.095 141.825C143.478 141.642 143.82 141.583 144.12 141.65C144.42 141.7 144.653 141.833 144.82 142.05C144.987 142.267 145.078 142.517 145.095 142.8C145.128 143.083 145.07 143.367 144.92 143.65C144.77 143.917 144.52 144.142 144.17 144.325C143.603 144.642 142.962 144.875 142.245 145.025C141.545 145.192 140.862 145.275 140.195 145.275ZM149.441 145.225C148.824 145.225 148.349 145.058 148.016 144.725C147.699 144.392 147.541 143.917 147.541 143.3V134.425C147.541 133.808 147.699 133.342 148.016 133.025C148.349 132.692 148.807 132.525 149.391 132.525C149.991 132.525 150.449 132.692 150.766 133.025C151.082 133.342 151.241 133.808 151.241 134.425V135.85L150.966 135.025C151.349 134.208 151.916 133.583 152.666 133.15C153.432 132.7 154.299 132.475 155.266 132.475C156.249 132.475 157.057 132.667 157.691 133.05C158.324 133.417 158.799 133.983 159.116 134.75C159.432 135.5 159.591 136.458 159.591 137.625V143.3C159.591 143.917 159.424 144.392 159.091 144.725C158.774 145.058 158.307 145.225 157.691 145.225C157.091 145.225 156.624 145.058 156.291 144.725C155.974 144.392 155.816 143.917 155.816 143.3V137.8C155.816 136.95 155.657 136.342 155.341 135.975C155.041 135.592 154.574 135.4 153.941 135.4C153.141 135.4 152.499 135.65 152.016 136.15C151.549 136.65 151.316 137.317 151.316 138.15V143.3C151.316 144.583 150.691 145.225 149.441 145.225ZM168.784 145.275C167.334 145.275 166.084 145.017 165.034 144.5C164.001 143.967 163.201 143.225 162.634 142.275C162.084 141.308 161.809 140.175 161.809 138.875C161.809 137.608 162.076 136.5 162.609 135.55C163.142 134.583 163.884 133.833 164.834 133.3C165.801 132.75 166.892 132.475 168.109 132.475C168.992 132.475 169.792 132.625 170.509 132.925C171.226 133.208 171.842 133.625 172.359 134.175C172.876 134.708 173.267 135.367 173.534 136.15C173.801 136.917 173.934 137.775 173.934 138.725C173.934 139.042 173.834 139.283 173.634 139.45C173.434 139.6 173.142 139.675 172.759 139.675H164.909V137.725H171.209L170.809 138.075C170.809 137.392 170.709 136.825 170.509 136.375C170.309 135.908 170.017 135.558 169.634 135.325C169.267 135.092 168.809 134.975 168.259 134.975C167.642 134.975 167.117 135.117 166.684 135.4C166.251 135.683 165.917 136.092 165.684 136.625C165.451 137.158 165.334 137.8 165.334 138.55V138.75C165.334 140.017 165.626 140.95 166.209 141.55C166.809 142.15 167.692 142.45 168.859 142.45C169.259 142.45 169.717 142.4 170.234 142.3C170.751 142.2 171.234 142.042 171.684 141.825C172.067 141.642 172.409 141.583 172.709 141.65C173.009 141.7 173.242 141.833 173.409 142.05C173.576 142.267 173.667 142.517 173.684 142.8C173.717 143.083 173.659 143.367 173.509 143.65C173.359 143.917 173.109 144.142 172.759 144.325C172.192 144.642 171.551 144.875 170.834 145.025C170.134 145.192 169.451 145.275 168.784 145.275ZM178.08 145.225C177.446 145.225 176.963 145.058 176.63 144.725C176.296 144.392 176.13 143.917 176.13 143.3V134.425C176.13 133.808 176.288 133.342 176.605 133.025C176.938 132.692 177.396 132.525 177.98 132.525C178.58 132.525 179.038 132.692 179.355 133.025C179.671 133.342 179.83 133.808 179.83 134.425V135.725H179.58C179.78 134.725 180.221 133.95 180.905 133.4C181.588 132.85 182.471 132.542 183.555 132.475C183.971 132.442 184.288 132.55 184.505 132.8C184.738 133.033 184.863 133.425 184.88 133.975C184.913 134.492 184.805 134.9 184.555 135.2C184.321 135.5 183.921 135.683 183.355 135.75L182.78 135.8C181.83 135.883 181.121 136.158 180.655 136.625C180.205 137.092 179.98 137.767 179.98 138.65V143.3C179.98 143.917 179.813 144.392 179.48 144.725C179.163 145.058 178.696 145.225 178.08 145.225ZM188.332 145.2C187.716 145.2 187.241 145.025 186.907 144.675C186.591 144.308 186.432 143.8 186.432 143.15V134.6C186.432 133.933 186.591 133.425 186.907 133.075C187.241 132.708 187.716 132.525 188.332 132.525C188.932 132.525 189.391 132.708 189.707 133.075C190.041 133.425 190.207 133.933 190.207 134.6V143.15C190.207 143.8 190.049 144.308 189.732 144.675C189.416 145.025 188.949 145.2 188.332 145.2ZM188.332 130.475C187.632 130.475 187.091 130.317 186.707 130C186.341 129.667 186.157 129.2 186.157 128.6C186.157 127.983 186.341 127.517 186.707 127.2C187.091 126.867 187.632 126.7 188.332 126.7C189.032 126.7 189.566 126.867 189.932 127.2C190.299 127.517 190.482 127.983 190.482 128.6C190.482 129.2 190.299 129.667 189.932 130C189.566 130.317 189.032 130.475 188.332 130.475ZM195.072 145.225C194.455 145.225 193.98 145.058 193.647 144.725C193.33 144.392 193.172 143.917 193.172 143.3V134.425C193.172 133.808 193.33 133.342 193.647 133.025C193.98 132.692 194.439 132.525 195.022 132.525C195.622 132.525 196.08 132.692 196.397 133.025C196.714 133.342 196.872 133.808 196.872 134.425V136.025L196.597 135.025C196.93 134.258 197.447 133.642 198.147 133.175C198.847 132.708 199.672 132.475 200.622 132.475C201.572 132.475 202.364 132.7 202.997 133.15C203.63 133.6 204.08 134.292 204.347 135.225H203.997C204.364 134.375 204.922 133.708 205.672 133.225C206.439 132.725 207.314 132.475 208.297 132.475C209.247 132.475 210.022 132.667 210.622 133.05C211.239 133.417 211.697 133.983 211.997 134.75C212.297 135.5 212.447 136.458 212.447 137.625V143.3C212.447 143.917 212.28 144.392 211.947 144.725C211.63 145.058 211.172 145.225 210.572 145.225C209.955 145.225 209.48 145.058 209.147 144.725C208.83 144.392 208.672 143.917 208.672 143.3V137.75C208.672 136.933 208.539 136.342 208.272 135.975C208.022 135.592 207.589 135.4 206.972 135.4C206.255 135.4 205.697 135.65 205.297 136.15C204.897 136.65 204.697 137.358 204.697 138.275V143.3C204.697 143.917 204.53 144.392 204.197 144.725C203.88 145.058 203.422 145.225 202.822 145.225C202.222 145.225 201.755 145.058 201.422 144.725C201.089 144.392 200.922 143.917 200.922 143.3V137.75C200.922 136.933 200.789 136.342 200.522 135.975C200.272 135.592 199.839 135.4 199.222 135.4C198.505 135.4 197.947 135.65 197.547 136.15C197.147 136.65 196.947 137.358 196.947 138.275V143.3C196.947 144.583 196.322 145.225 195.072 145.225ZM219.489 145.275C218.589 145.275 217.78 145.1 217.064 144.75C216.347 144.4 215.789 143.925 215.389 143.325C214.989 142.725 214.789 142.05 214.789 141.3C214.789 140.4 215.022 139.692 215.489 139.175C215.955 138.642 216.714 138.267 217.764 138.05C218.814 137.817 220.205 137.7 221.939 137.7H223.264V139.65H221.964C221.114 139.65 220.422 139.7 219.889 139.8C219.372 139.883 218.997 140.033 218.764 140.25C218.547 140.467 218.439 140.767 218.439 141.15C218.439 141.617 218.597 142 218.914 142.3C219.247 142.6 219.722 142.75 220.339 142.75C220.822 142.75 221.247 142.642 221.614 142.425C221.997 142.192 222.297 141.883 222.514 141.5C222.73 141.1 222.839 140.65 222.839 140.15V137.275C222.839 136.542 222.672 136.025 222.339 135.725C222.005 135.408 221.439 135.25 220.639 135.25C220.189 135.25 219.697 135.308 219.164 135.425C218.647 135.525 218.072 135.7 217.439 135.95C217.072 136.117 216.747 136.158 216.464 136.075C216.18 135.975 215.964 135.808 215.814 135.575C215.664 135.325 215.589 135.058 215.589 134.775C215.589 134.475 215.672 134.192 215.839 133.925C216.005 133.642 216.28 133.433 216.664 133.3C217.447 132.983 218.18 132.767 218.864 132.65C219.564 132.533 220.205 132.475 220.789 132.475C222.072 132.475 223.122 132.667 223.939 133.05C224.772 133.417 225.397 133.992 225.814 134.775C226.23 135.542 226.439 136.533 226.439 137.75V143.3C226.439 143.917 226.289 144.392 225.989 144.725C225.689 145.058 225.255 145.225 224.689 145.225C224.122 145.225 223.68 145.058 223.364 144.725C223.064 144.392 222.914 143.917 222.914 143.3V142.375L223.089 142.525C222.989 143.092 222.772 143.583 222.439 144C222.122 144.4 221.714 144.717 221.214 144.95C220.714 145.167 220.139 145.275 219.489 145.275ZM239.087 145.225C238.47 145.225 237.995 145.058 237.662 144.725C237.345 144.392 237.187 143.917 237.187 143.3V135.55H236.287C235.82 135.55 235.454 135.425 235.187 135.175C234.937 134.925 234.812 134.583 234.812 134.15C234.812 133.683 234.937 133.333 235.187 133.1C235.454 132.85 235.82 132.725 236.287 132.725H238.287L237.187 133.725V132.95C237.187 131.2 237.62 129.875 238.487 128.975C239.354 128.075 240.637 127.533 242.337 127.35L243.062 127.275C243.529 127.242 243.895 127.308 244.162 127.475C244.445 127.625 244.629 127.833 244.712 128.1C244.812 128.367 244.837 128.642 244.787 128.925C244.737 129.208 244.62 129.458 244.437 129.675C244.27 129.875 244.054 129.983 243.787 130L243.262 130.05C242.429 130.1 241.837 130.308 241.487 130.675C241.137 131.042 240.962 131.583 240.962 132.3V133.15L240.487 132.725H247.487C248.087 132.725 248.545 132.908 248.862 133.275C249.195 133.625 249.362 134.125 249.362 134.775V143.15C249.362 143.8 249.204 144.308 248.887 144.675C248.57 145.025 248.104 145.2 247.487 145.2C246.887 145.2 246.42 145.025 246.087 144.675C245.754 144.308 245.587 143.8 245.587 143.15V135.55H240.962V143.3C240.962 144.583 240.337 145.225 239.087 145.225ZM247.562 130.475C246.895 130.475 246.379 130.317 246.012 130C245.662 129.667 245.487 129.2 245.487 128.6C245.487 127.983 245.662 127.517 246.012 127.2C246.379 126.867 246.895 126.7 247.562 126.7C248.229 126.7 248.737 126.867 249.087 127.2C249.454 127.517 249.637 127.983 249.637 128.6C249.637 129.2 249.454 129.667 249.087 130C248.737 130.317 248.229 130.475 247.562 130.475ZM256.702 145.275C255.219 145.275 254.11 144.867 253.377 144.05C252.644 143.217 252.277 141.983 252.277 140.35V129.075C252.277 128.442 252.435 127.967 252.752 127.65C253.085 127.317 253.56 127.15 254.177 127.15C254.777 127.15 255.235 127.317 255.552 127.65C255.885 127.967 256.052 128.442 256.052 129.075V140.2C256.052 140.883 256.194 141.392 256.477 141.725C256.777 142.042 257.169 142.2 257.652 142.2C257.785 142.2 257.91 142.192 258.027 142.175C258.144 142.158 258.269 142.15 258.402 142.15C258.669 142.117 258.852 142.2 258.952 142.4C259.069 142.583 259.127 142.958 259.127 143.525C259.127 144.025 259.027 144.408 258.827 144.675C258.627 144.925 258.319 145.092 257.902 145.175C257.735 145.192 257.544 145.208 257.327 145.225C257.11 145.258 256.902 145.275 256.702 145.275ZM266.855 145.275C265.405 145.275 264.155 145.017 263.105 144.5C262.072 143.967 261.272 143.225 260.705 142.275C260.155 141.308 259.88 140.175 259.88 138.875C259.88 137.608 260.147 136.5 260.68 135.55C261.214 134.583 261.955 133.833 262.905 133.3C263.872 132.75 264.964 132.475 266.18 132.475C267.064 132.475 267.864 132.625 268.58 132.925C269.297 133.208 269.914 133.625 270.43 134.175C270.947 134.708 271.339 135.367 271.605 136.15C271.872 136.917 272.005 137.775 272.005 138.725C272.005 139.042 271.905 139.283 271.705 139.45C271.505 139.6 271.214 139.675 270.83 139.675H262.98V137.725H269.28L268.88 138.075C268.88 137.392 268.78 136.825 268.58 136.375C268.38 135.908 268.089 135.558 267.705 135.325C267.339 135.092 266.88 134.975 266.33 134.975C265.714 134.975 265.189 135.117 264.755 135.4C264.322 135.683 263.989 136.092 263.755 136.625C263.522 137.158 263.405 137.8 263.405 138.55V138.75C263.405 140.017 263.697 140.95 264.28 141.55C264.88 142.15 265.764 142.45 266.93 142.45C267.33 142.45 267.789 142.4 268.305 142.3C268.822 142.2 269.305 142.042 269.755 141.825C270.139 141.642 270.48 141.583 270.78 141.65C271.08 141.7 271.314 141.833 271.48 142.05C271.647 142.267 271.739 142.517 271.755 142.8C271.789 143.083 271.73 143.367 271.58 143.65C271.43 143.917 271.18 144.142 270.83 144.325C270.264 144.642 269.622 144.875 268.905 145.025C268.205 145.192 267.522 145.275 266.855 145.275ZM285.958 145.275C284.892 145.275 283.95 145.017 283.133 144.5C282.333 143.983 281.708 143.242 281.258 142.275C280.808 141.308 280.583 140.167 280.583 138.85C280.583 137.533 280.808 136.4 281.258 135.45C281.708 134.5 282.333 133.767 283.133 133.25C283.95 132.733 284.892 132.475 285.958 132.475C286.925 132.475 287.775 132.708 288.508 133.175C289.258 133.642 289.767 134.25 290.033 135H289.758V129.075C289.758 128.442 289.917 127.967 290.233 127.65C290.55 127.317 291.017 127.15 291.633 127.15C292.233 127.15 292.7 127.317 293.033 127.65C293.367 127.967 293.533 128.442 293.533 129.075V143.3C293.533 143.917 293.367 144.392 293.033 144.725C292.717 145.058 292.258 145.225 291.658 145.225C291.058 145.225 290.592 145.058 290.258 144.725C289.942 144.392 289.783 143.917 289.783 143.3V141.6L290.058 142.575C289.825 143.392 289.325 144.05 288.558 144.55C287.808 145.033 286.942 145.275 285.958 145.275ZM287.083 142.45C287.633 142.45 288.108 142.317 288.508 142.05C288.908 141.783 289.225 141.392 289.458 140.875C289.692 140.342 289.808 139.667 289.808 138.85C289.808 137.633 289.558 136.742 289.058 136.175C288.558 135.592 287.9 135.3 287.083 135.3C286.55 135.3 286.075 135.425 285.658 135.675C285.258 135.925 284.942 136.317 284.708 136.85C284.492 137.367 284.383 138.033 284.383 138.85C284.383 140.067 284.633 140.975 285.133 141.575C285.633 142.158 286.283 142.45 287.083 142.45ZM300.592 145.275C299.692 145.275 298.884 145.1 298.167 144.75C297.451 144.4 296.892 143.925 296.492 143.325C296.092 142.725 295.892 142.05 295.892 141.3C295.892 140.4 296.126 139.692 296.592 139.175C297.059 138.642 297.817 138.267 298.867 138.05C299.917 137.817 301.309 137.7 303.042 137.7H304.367V139.65H303.067C302.217 139.65 301.526 139.7 300.992 139.8C300.476 139.883 300.101 140.033 299.867 140.25C299.651 140.467 299.542 140.767 299.542 141.15C299.542 141.617 299.701 142 300.017 142.3C300.351 142.6 300.826 142.75 301.442 142.75C301.926 142.75 302.351 142.642 302.717 142.425C303.101 142.192 303.401 141.883 303.617 141.5C303.834 141.1 303.942 140.65 303.942 140.15V137.275C303.942 136.542 303.776 136.025 303.442 135.725C303.109 135.408 302.542 135.25 301.742 135.25C301.292 135.25 300.801 135.308 300.267 135.425C299.751 135.525 299.176 135.7 298.542 135.95C298.176 136.117 297.851 136.158 297.567 136.075C297.284 135.975 297.067 135.808 296.917 135.575C296.767 135.325 296.692 135.058 296.692 134.775C296.692 134.475 296.776 134.192 296.942 133.925C297.109 133.642 297.384 133.433 297.767 133.3C298.551 132.983 299.284 132.767 299.967 132.65C300.667 132.533 301.309 132.475 301.892 132.475C303.176 132.475 304.226 132.667 305.042 133.05C305.876 133.417 306.501 133.992 306.917 134.775C307.334 135.542 307.542 136.533 307.542 137.75V143.3C307.542 143.917 307.392 144.392 307.092 144.725C306.792 145.058 306.359 145.225 305.792 145.225C305.226 145.225 304.784 145.058 304.467 144.725C304.167 144.392 304.017 143.917 304.017 143.3V142.375L304.192 142.525C304.092 143.092 303.876 143.583 303.542 144C303.226 144.4 302.817 144.717 302.317 144.95C301.817 145.167 301.242 145.275 300.592 145.275ZM314.783 145.275C313.3 145.275 312.192 144.867 311.458 144.05C310.725 143.217 310.358 141.983 310.358 140.35V129.075C310.358 128.442 310.517 127.967 310.833 127.65C311.167 127.317 311.642 127.15 312.258 127.15C312.858 127.15 313.317 127.317 313.633 127.65C313.967 127.967 314.133 128.442 314.133 129.075V140.2C314.133 140.883 314.275 141.392 314.558 141.725C314.858 142.042 315.25 142.2 315.733 142.2C315.867 142.2 315.992 142.192 316.108 142.175C316.225 142.158 316.35 142.15 316.483 142.15C316.75 142.117 316.933 142.2 317.033 142.4C317.15 142.583 317.208 142.958 317.208 143.525C317.208 144.025 317.108 144.408 316.908 144.675C316.708 144.925 316.4 145.092 315.983 145.175C315.817 145.192 315.625 145.208 315.408 145.225C315.192 145.258 314.983 145.275 314.783 145.275ZM322.833 145.275C321.933 145.275 321.125 145.1 320.408 144.75C319.692 144.4 319.133 143.925 318.733 143.325C318.333 142.725 318.133 142.05 318.133 141.3C318.133 140.4 318.367 139.692 318.833 139.175C319.3 138.642 320.058 138.267 321.108 138.05C322.158 137.817 323.55 137.7 325.283 137.7H326.608V139.65H325.308C324.458 139.65 323.767 139.7 323.233 139.8C322.717 139.883 322.342 140.033 322.108 140.25C321.892 140.467 321.783 140.767 321.783 141.15C321.783 141.617 321.942 142 322.258 142.3C322.592 142.6 323.067 142.75 323.683 142.75C324.167 142.75 324.592 142.642 324.958 142.425C325.342 142.192 325.642 141.883 325.858 141.5C326.075 141.1 326.183 140.65 326.183 140.15V137.275C326.183 136.542 326.017 136.025 325.683 135.725C325.35 135.408 324.783 135.25 323.983 135.25C323.533 135.25 323.042 135.308 322.508 135.425C321.992 135.525 321.417 135.7 320.783 135.95C320.417 136.117 320.092 136.158 319.808 136.075C319.525 135.975 319.308 135.808 319.158 135.575C319.008 135.325 318.933 135.058 318.933 134.775C318.933 134.475 319.017 134.192 319.183 133.925C319.35 133.642 319.625 133.433 320.008 133.3C320.792 132.983 321.525 132.767 322.208 132.65C322.908 132.533 323.55 132.475 324.133 132.475C325.417 132.475 326.467 132.667 327.283 133.05C328.117 133.417 328.742 133.992 329.158 134.775C329.575 135.542 329.783 136.533 329.783 137.75V143.3C329.783 143.917 329.633 144.392 329.333 144.725C329.033 145.058 328.6 145.225 328.033 145.225C327.467 145.225 327.025 145.058 326.708 144.725C326.408 144.392 326.258 143.917 326.258 143.3V142.375L326.433 142.525C326.333 143.092 326.117 143.583 325.783 144C325.467 144.4 325.058 144.717 324.558 144.95C324.058 145.167 323.483 145.275 322.833 145.275ZM334.549 145.225C333.933 145.225 333.458 145.058 333.124 144.725C332.808 144.392 332.649 143.917 332.649 143.3V134.425C332.649 133.808 332.808 133.342 333.124 133.025C333.458 132.692 333.916 132.525 334.499 132.525C335.099 132.525 335.558 132.692 335.874 133.025C336.191 133.342 336.349 133.808 336.349 134.425V136.025L336.074 135.025C336.408 134.258 336.924 133.642 337.624 133.175C338.324 132.708 339.149 132.475 340.099 132.475C341.049 132.475 341.841 132.7 342.474 133.15C343.108 133.6 343.558 134.292 343.824 135.225H343.474C343.841 134.375 344.399 133.708 345.149 133.225C345.916 132.725 346.791 132.475 347.774 132.475C348.724 132.475 349.499 132.667 350.099 133.05C350.716 133.417 351.174 133.983 351.474 134.75C351.774 135.5 351.924 136.458 351.924 137.625V143.3C351.924 143.917 351.758 144.392 351.424 144.725C351.108 145.058 350.649 145.225 350.049 145.225C349.433 145.225 348.958 145.058 348.624 144.725C348.308 144.392 348.149 143.917 348.149 143.3V137.75C348.149 136.933 348.016 136.342 347.749 135.975C347.499 135.592 347.066 135.4 346.449 135.4C345.733 135.4 345.174 135.65 344.774 136.15C344.374 136.65 344.174 137.358 344.174 138.275V143.3C344.174 143.917 344.008 144.392 343.674 144.725C343.358 145.058 342.899 145.225 342.299 145.225C341.699 145.225 341.233 145.058 340.899 144.725C340.566 144.392 340.399 143.917 340.399 143.3V137.75C340.399 136.933 340.266 136.342 339.999 135.975C339.749 135.592 339.316 135.4 338.699 135.4C337.983 135.4 337.424 135.65 337.024 136.15C336.624 136.65 336.424 137.358 336.424 138.275V143.3C336.424 144.583 335.799 145.225 334.549 145.225ZM32.3 179.225C31.6833 179.225 31.2083 179.058 30.875 178.725C30.5583 178.392 30.4 177.917 30.4 177.3V169.55H29.5C29.0333 169.55 28.6667 169.425 28.4 169.175C28.15 168.925 28.025 168.583 28.025 168.15C28.025 167.683 28.15 167.333 28.4 167.1C28.6667 166.85 29.0333 166.725 29.5 166.725H31.5L30.4 167.725V166.95C30.4 165.167 30.8417 163.833 31.725 162.95C32.625 162.067 33.9417 161.533 35.675 161.35L36.475 161.275C36.9083 161.242 37.25 161.308 37.5 161.475C37.7667 161.642 37.9417 161.858 38.025 162.125C38.1083 162.392 38.125 162.667 38.075 162.95C38.025 163.217 37.9083 163.458 37.725 163.675C37.5583 163.875 37.325 163.983 37.025 164L36.675 164.025C35.775 164.092 35.1333 164.308 34.75 164.675C34.3667 165.025 34.175 165.567 34.175 166.3V167.15L33.7 166.725H35.95C36.4333 166.725 36.8 166.85 37.05 167.1C37.3 167.333 37.425 167.683 37.425 168.15C37.425 168.583 37.3 168.925 37.05 169.175C36.8 169.425 36.4333 169.55 35.95 169.55H34.175V177.3C34.175 178.583 33.55 179.225 32.3 179.225ZM44.6029 179.275C43.2863 179.275 42.1363 179.017 41.1529 178.5C40.1863 177.983 39.4363 177.242 38.9029 176.275C38.3696 175.308 38.1029 174.167 38.1029 172.85C38.1029 171.867 38.2529 170.983 38.5529 170.2C38.8529 169.417 39.2863 168.75 39.8529 168.2C40.4363 167.633 41.1279 167.208 41.9279 166.925C42.7279 166.625 43.6196 166.475 44.6029 166.475C45.9196 166.475 47.0613 166.733 48.0279 167.25C49.0113 167.767 49.7696 168.5 50.3029 169.45C50.8529 170.4 51.1279 171.533 51.1279 172.85C51.1279 173.85 50.9696 174.742 50.6529 175.525C50.3529 176.308 49.9196 176.983 49.3529 177.55C48.7863 178.117 48.0946 178.55 47.2779 178.85C46.4779 179.133 45.5863 179.275 44.6029 179.275ZM44.6029 176.45C45.1529 176.45 45.6279 176.317 46.0279 176.05C46.4279 175.783 46.7446 175.392 46.9779 174.875C47.2113 174.342 47.3279 173.667 47.3279 172.85C47.3279 171.633 47.0779 170.742 46.5779 170.175C46.0779 169.592 45.4196 169.3 44.6029 169.3C44.0696 169.3 43.5946 169.425 43.1779 169.675C42.7779 169.925 42.4613 170.317 42.2279 170.85C42.0113 171.367 41.9029 172.033 41.9029 172.85C41.9029 174.067 42.1529 174.975 42.6529 175.575C43.1529 176.158 43.8029 176.45 44.6029 176.45ZM55.3746 179.225C54.7413 179.225 54.2579 179.058 53.9246 178.725C53.5913 178.392 53.4246 177.917 53.4246 177.3V168.425C53.4246 167.808 53.5829 167.342 53.8996 167.025C54.2329 166.692 54.6913 166.525 55.2746 166.525C55.8746 166.525 56.3329 166.692 56.6496 167.025C56.9663 167.342 57.1246 167.808 57.1246 168.425V169.725H56.8746C57.0746 168.725 57.5163 167.95 58.1996 167.4C58.8829 166.85 59.7663 166.542 60.8496 166.475C61.2663 166.442 61.5829 166.55 61.7996 166.8C62.0329 167.033 62.1579 167.425 62.1746 167.975C62.2079 168.492 62.0996 168.9 61.8496 169.2C61.6163 169.5 61.2163 169.683 60.6496 169.75L60.0746 169.8C59.1246 169.883 58.4163 170.158 57.9496 170.625C57.4996 171.092 57.2746 171.767 57.2746 172.65V177.3C57.2746 177.917 57.1079 178.392 56.7746 178.725C56.4579 179.058 55.9913 179.225 55.3746 179.225ZM65.6773 179.225C65.0607 179.225 64.5857 179.058 64.2523 178.725C63.9357 178.392 63.7773 177.917 63.7773 177.3V168.425C63.7773 167.808 63.9357 167.342 64.2523 167.025C64.5857 166.692 65.044 166.525 65.6273 166.525C66.2273 166.525 66.6857 166.692 67.0023 167.025C67.319 167.342 67.4773 167.808 67.4773 168.425V170.025L67.2023 169.025C67.5357 168.258 68.0523 167.642 68.7523 167.175C69.4523 166.708 70.2773 166.475 71.2273 166.475C72.1773 166.475 72.969 166.7 73.6023 167.15C74.2357 167.6 74.6857 168.292 74.9523 169.225H74.6023C74.969 168.375 75.5273 167.708 76.2773 167.225C77.044 166.725 77.919 166.475 78.9023 166.475C79.8523 166.475 80.6273 166.667 81.2273 167.05C81.844 167.417 82.3023 167.983 82.6023 168.75C82.9023 169.5 83.0523 170.458 83.0523 171.625V177.3C83.0523 177.917 82.8857 178.392 82.5523 178.725C82.2357 179.058 81.7773 179.225 81.1773 179.225C80.5607 179.225 80.0857 179.058 79.7523 178.725C79.4357 178.392 79.2773 177.917 79.2773 177.3V171.75C79.2773 170.933 79.144 170.342 78.8773 169.975C78.6273 169.592 78.194 169.4 77.5773 169.4C76.8607 169.4 76.3023 169.65 75.9023 170.15C75.5023 170.65 75.3023 171.358 75.3023 172.275V177.3C75.3023 177.917 75.1357 178.392 74.8023 178.725C74.4857 179.058 74.0273 179.225 73.4273 179.225C72.8273 179.225 72.3607 179.058 72.0273 178.725C71.694 178.392 71.5273 177.917 71.5273 177.3V171.75C71.5273 170.933 71.394 170.342 71.1273 169.975C70.8773 169.592 70.444 169.4 69.8273 169.4C69.1107 169.4 68.5523 169.65 68.1523 170.15C67.7523 170.65 67.5523 171.358 67.5523 172.275V177.3C67.5523 178.583 66.9273 179.225 65.6773 179.225ZM90.0941 179.275C89.1941 179.275 88.3858 179.1 87.6691 178.75C86.9525 178.4 86.3941 177.925 85.9941 177.325C85.5941 176.725 85.3941 176.05 85.3941 175.3C85.3941 174.4 85.6275 173.692 86.0941 173.175C86.5608 172.642 87.3191 172.267 88.3691 172.05C89.4191 171.817 90.8108 171.7 92.5441 171.7H93.8691V173.65H92.5691C91.7191 173.65 91.0275 173.7 90.4941 173.8C89.9775 173.883 89.6025 174.033 89.3691 174.25C89.1525 174.467 89.0441 174.767 89.0441 175.15C89.0441 175.617 89.2025 176 89.5191 176.3C89.8525 176.6 90.3275 176.75 90.9441 176.75C91.4275 176.75 91.8525 176.642 92.2191 176.425C92.6025 176.192 92.9025 175.883 93.1191 175.5C93.3358 175.1 93.4441 174.65 93.4441 174.15V171.275C93.4441 170.542 93.2775 170.025 92.9441 169.725C92.6108 169.408 92.0441 169.25 91.2441 169.25C90.7941 169.25 90.3025 169.308 89.7691 169.425C89.2525 169.525 88.6775 169.7 88.0441 169.95C87.6775 170.117 87.3525 170.158 87.0691 170.075C86.7858 169.975 86.5691 169.808 86.4191 169.575C86.2691 169.325 86.1941 169.058 86.1941 168.775C86.1941 168.475 86.2775 168.192 86.4441 167.925C86.6108 167.642 86.8858 167.433 87.2691 167.3C88.0525 166.983 88.7858 166.767 89.4691 166.65C90.1691 166.533 90.8108 166.475 91.3941 166.475C92.6775 166.475 93.7275 166.667 94.5441 167.05C95.3775 167.417 96.0025 167.992 96.4191 168.775C96.8358 169.542 97.0441 170.533 97.0441 171.75V177.3C97.0441 177.917 96.8941 178.392 96.5941 178.725C96.2941 179.058 95.8608 179.225 95.2941 179.225C94.7275 179.225 94.2858 179.058 93.9691 178.725C93.6691 178.392 93.5191 177.917 93.5191 177.3V176.375L93.6941 176.525C93.5941 177.092 93.3775 177.583 93.0441 178C92.7275 178.4 92.3191 178.717 91.8191 178.95C91.3191 179.167 90.7441 179.275 90.0941 179.275ZM105.885 179.275C104.735 179.275 103.768 179.083 102.985 178.7C102.218 178.317 101.643 177.758 101.26 177.025C100.893 176.292 100.71 175.367 100.71 174.25V169.55H99.6602C99.1935 169.55 98.8268 169.425 98.5602 169.175C98.3102 168.925 98.1852 168.583 98.1852 168.15C98.1852 167.683 98.3102 167.333 98.5602 167.1C98.8268 166.85 99.1935 166.725 99.6602 166.725H100.71V164.825C100.71 164.192 100.877 163.717 101.21 163.4C101.543 163.067 102.01 162.9 102.61 162.9C103.227 162.9 103.693 163.067 104.01 163.4C104.327 163.717 104.485 164.192 104.485 164.825V166.725H106.86C107.327 166.725 107.685 166.85 107.935 167.1C108.185 167.333 108.31 167.683 108.31 168.15C108.31 168.583 108.185 168.925 107.935 169.175C107.685 169.425 107.327 169.55 106.86 169.55H104.485V174.1C104.485 174.8 104.643 175.325 104.96 175.675C105.293 176.025 105.818 176.2 106.535 176.2C106.785 176.2 107.018 176.175 107.235 176.125C107.452 176.075 107.652 176.042 107.835 176.025C108.068 176.008 108.26 176.083 108.41 176.25C108.56 176.4 108.635 176.742 108.635 177.275C108.635 177.675 108.568 178.025 108.435 178.325C108.302 178.625 108.068 178.842 107.735 178.975C107.518 179.058 107.218 179.125 106.835 179.175C106.468 179.242 106.152 179.275 105.885 179.275ZM121 182.975C119.917 181.342 119.142 179.633 118.675 177.85C118.208 176.067 117.975 174.258 117.975 172.425C117.975 171.192 118.075 169.975 118.275 168.775C118.475 167.575 118.8 166.4 119.25 165.25C119.7 164.083 120.283 162.958 121 161.875C121.217 161.525 121.508 161.308 121.875 161.225C122.258 161.125 122.608 161.15 122.925 161.3C123.258 161.433 123.508 161.683 123.675 162.05C123.842 162.417 123.825 162.883 123.625 163.45C123.258 164.483 122.95 165.492 122.7 166.475C122.467 167.458 122.292 168.433 122.175 169.4C122.075 170.367 122.025 171.375 122.025 172.425C122.025 173.475 122.083 174.483 122.2 175.45C122.317 176.417 122.492 177.392 122.725 178.375C122.975 179.342 123.275 180.35 123.625 181.4C123.825 181.967 123.842 182.433 123.675 182.8C123.508 183.167 123.258 183.417 122.925 183.55C122.592 183.683 122.242 183.708 121.875 183.625C121.508 183.542 121.217 183.325 121 182.975ZM128.321 179.125C127.654 179.125 127.121 178.925 126.721 178.525C126.338 178.125 126.146 177.608 126.146 176.975C126.146 176.358 126.338 175.858 126.721 175.475C127.121 175.075 127.654 174.875 128.321 174.875C128.988 174.875 129.504 175.075 129.871 175.475C130.254 175.858 130.446 176.358 130.446 176.975C130.446 177.608 130.254 178.125 129.871 178.525C129.504 178.925 128.988 179.125 128.321 179.125ZM138.574 179.275C137.241 179.275 136.074 179.017 135.074 178.5C134.091 177.967 133.333 177.217 132.799 176.25C132.266 175.283 131.999 174.142 131.999 172.825C131.999 171.842 132.149 170.958 132.449 170.175C132.749 169.392 133.183 168.725 133.749 168.175C134.333 167.625 135.033 167.208 135.849 166.925C136.666 166.625 137.574 166.475 138.574 166.475C139.091 166.475 139.641 166.542 140.224 166.675C140.808 166.792 141.383 167 141.949 167.3C142.283 167.45 142.508 167.667 142.624 167.95C142.758 168.217 142.808 168.5 142.774 168.8C142.741 169.083 142.633 169.342 142.449 169.575C142.283 169.792 142.066 169.942 141.799 170.025C141.533 170.092 141.233 170.042 140.899 169.875C140.583 169.692 140.249 169.558 139.899 169.475C139.566 169.392 139.249 169.35 138.949 169.35C138.449 169.35 138.008 169.433 137.624 169.6C137.241 169.75 136.916 169.975 136.649 170.275C136.399 170.558 136.199 170.917 136.049 171.35C135.916 171.783 135.849 172.283 135.849 172.85C135.849 173.95 136.116 174.817 136.649 175.45C137.199 176.067 137.966 176.375 138.949 176.375C139.249 176.375 139.566 176.342 139.899 176.275C140.233 176.192 140.566 176.058 140.899 175.875C141.233 175.708 141.533 175.667 141.799 175.75C142.066 175.833 142.274 175.992 142.424 176.225C142.591 176.442 142.683 176.7 142.699 177C142.733 177.283 142.683 177.567 142.549 177.85C142.433 178.117 142.216 178.325 141.899 178.475C141.333 178.758 140.766 178.958 140.199 179.075C139.633 179.208 139.091 179.275 138.574 179.275ZM149.238 179.275C148.505 179.275 147.746 179.208 146.963 179.075C146.196 178.942 145.496 178.717 144.863 178.4C144.53 178.233 144.288 178.025 144.138 177.775C144.005 177.508 143.946 177.242 143.963 176.975C143.98 176.708 144.063 176.467 144.213 176.25C144.38 176.033 144.588 175.892 144.838 175.825C145.105 175.742 145.396 175.767 145.713 175.9C146.396 176.183 147.021 176.383 147.588 176.5C148.155 176.617 148.713 176.675 149.263 176.675C149.98 176.675 150.496 176.567 150.813 176.35C151.146 176.117 151.313 175.817 151.313 175.45C151.313 175.117 151.205 174.867 150.988 174.7C150.771 174.533 150.455 174.417 150.038 174.35L147.413 173.875C146.38 173.692 145.58 173.317 145.013 172.75C144.463 172.167 144.188 171.425 144.188 170.525C144.188 169.692 144.421 168.975 144.888 168.375C145.355 167.758 145.996 167.292 146.813 166.975C147.646 166.642 148.588 166.475 149.638 166.475C150.388 166.475 151.08 166.542 151.713 166.675C152.346 166.808 152.955 167.025 153.538 167.325C153.838 167.475 154.046 167.675 154.163 167.925C154.296 168.175 154.338 168.433 154.288 168.7C154.255 168.967 154.155 169.208 153.988 169.425C153.821 169.642 153.605 169.783 153.338 169.85C153.088 169.917 152.796 169.883 152.463 169.75C151.93 169.5 151.438 169.325 150.988 169.225C150.538 169.108 150.105 169.05 149.688 169.05C148.938 169.05 148.396 169.175 148.063 169.425C147.73 169.658 147.563 169.958 147.563 170.325C147.563 170.608 147.655 170.85 147.838 171.05C148.038 171.233 148.338 171.358 148.738 171.425L151.363 171.9C152.446 172.083 153.271 172.45 153.838 173C154.405 173.533 154.688 174.267 154.688 175.2C154.688 176.467 154.188 177.467 153.188 178.2C152.205 178.917 150.888 179.275 149.238 179.275ZM161.798 179.225C161.315 179.225 160.89 179.1 160.523 178.85C160.157 178.583 159.865 178.192 159.648 177.675L155.873 168.975C155.69 168.542 155.623 168.142 155.673 167.775C155.723 167.392 155.898 167.092 156.198 166.875C156.515 166.642 156.948 166.525 157.498 166.525C157.948 166.525 158.315 166.633 158.598 166.85C158.882 167.05 159.132 167.442 159.348 168.025L162.298 175.525H161.498L164.573 168C164.807 167.433 165.065 167.05 165.348 166.85C165.632 166.633 166.023 166.525 166.523 166.525C166.957 166.525 167.298 166.642 167.548 166.875C167.815 167.092 167.973 167.383 168.023 167.75C168.09 168.117 168.023 168.517 167.823 168.95L163.973 177.675C163.757 178.208 163.465 178.6 163.098 178.85C162.748 179.1 162.315 179.225 161.798 179.225ZM172.553 182.975C172.336 183.325 172.045 183.542 171.678 183.625C171.311 183.708 170.953 183.675 170.603 183.525C170.27 183.392 170.02 183.142 169.853 182.775C169.703 182.425 169.728 181.967 169.928 181.4C170.311 180.35 170.62 179.342 170.853 178.375C171.086 177.392 171.253 176.417 171.353 175.45C171.47 174.483 171.528 173.475 171.528 172.425C171.528 171.375 171.47 170.367 171.353 169.4C171.236 168.433 171.061 167.467 170.828 166.5C170.595 165.517 170.295 164.5 169.928 163.45C169.728 162.883 169.703 162.417 169.853 162.05C170.02 161.683 170.27 161.433 170.603 161.3C170.953 161.15 171.311 161.125 171.678 161.225C172.045 161.308 172.336 161.525 172.553 161.875C173.62 163.492 174.386 165.2 174.853 167C175.336 168.783 175.578 170.592 175.578 172.425C175.578 173.642 175.47 174.858 175.253 176.075C175.053 177.275 174.728 178.45 174.278 179.6C173.845 180.767 173.27 181.892 172.553 182.975Z" fill="white"/>
<rect x="28" y="50" width="160" height="47" rx="23.5" fill="white"/>
<path d="M49.47 86.27C48.71 86.27 48.13 86.06 47.73 85.64C47.33 85.22 47.13 84.63 47.13 83.87V67.22C47.13 66.44 47.33 65.85 47.73 65.45C48.15 65.05 48.74 64.85 49.5 64.85H56.79C59.15 64.85 60.97 65.45 62.25 66.65C63.53 67.83 64.17 69.48 64.17 71.6C64.17 73.72 63.53 75.38 62.25 76.58C60.97 77.78 59.15 78.38 56.79 78.38H51.78V83.87C51.78 84.63 51.58 85.22 51.18 85.64C50.8 86.06 50.23 86.27 49.47 86.27ZM51.78 74.78H56.01C57.21 74.78 58.12 74.51 58.74 73.97C59.38 73.43 59.7 72.64 59.7 71.6C59.7 70.56 59.38 69.78 58.74 69.26C58.12 68.74 57.21 68.48 56.01 68.48H51.78V74.78ZM73.5209 86.33C71.7809 86.33 70.2809 86.02 69.0209 85.4C67.7809 84.76 66.8209 83.87 66.1409 82.73C65.4809 81.57 65.1509 80.21 65.1509 78.65C65.1509 77.13 65.4709 75.8 66.1109 74.66C66.7509 73.5 67.6409 72.6 68.7809 71.96C69.9409 71.3 71.2509 70.97 72.7109 70.97C73.7709 70.97 74.7309 71.15 75.5909 71.51C76.4509 71.85 77.1909 72.35 77.8109 73.01C78.4309 73.65 78.9009 74.44 79.2209 75.38C79.5409 76.3 79.7009 77.33 79.7009 78.47C79.7009 78.85 79.5809 79.14 79.3409 79.34C79.1009 79.52 78.7509 79.61 78.2909 79.61H68.8709V77.27H76.4309L75.9509 77.69C75.9509 76.87 75.8309 76.19 75.5909 75.65C75.3509 75.09 75.0009 74.67 74.5409 74.39C74.1009 74.11 73.5509 73.97 72.8909 73.97C72.1509 73.97 71.5209 74.14 71.0009 74.48C70.4809 74.82 70.0809 75.31 69.8009 75.95C69.5209 76.59 69.3809 77.36 69.3809 78.26V78.5C69.3809 80.02 69.7309 81.14 70.4309 81.86C71.1509 82.58 72.2109 82.94 73.6109 82.94C74.0909 82.94 74.6409 82.88 75.2609 82.76C75.8809 82.64 76.4609 82.45 77.0009 82.19C77.4609 81.97 77.8709 81.9 78.2309 81.98C78.5909 82.04 78.8709 82.2 79.0709 82.46C79.2709 82.72 79.3809 83.02 79.4009 83.36C79.4409 83.7 79.3709 84.04 79.1909 84.38C79.0109 84.7 78.7109 84.97 78.2909 85.19C77.6109 85.57 76.8409 85.85 75.9809 86.03C75.1409 86.23 74.3209 86.33 73.5209 86.33ZM89.4778 86.33C88.0978 86.33 86.9378 86.1 85.9978 85.64C85.0778 85.18 84.3878 84.51 83.9278 83.63C83.4878 82.75 83.2678 81.64 83.2678 80.3V74.66H82.0078C81.4478 74.66 81.0078 74.51 80.6878 74.21C80.3878 73.91 80.2378 73.5 80.2378 72.98C80.2378 72.42 80.3878 72 80.6878 71.72C81.0078 71.42 81.4478 71.27 82.0078 71.27H83.2678V68.99C83.2678 68.23 83.4678 67.66 83.8678 67.28C84.2678 66.88 84.8278 66.68 85.5478 66.68C86.2878 66.68 86.8478 66.88 87.2278 67.28C87.6078 67.66 87.7978 68.23 87.7978 68.99V71.27H90.6478C91.2078 71.27 91.6378 71.42 91.9378 71.72C92.2378 72 92.3878 72.42 92.3878 72.98C92.3878 73.5 92.2378 73.91 91.9378 74.21C91.6378 74.51 91.2078 74.66 90.6478 74.66H87.7978V80.12C87.7978 80.96 87.9878 81.59 88.3678 82.01C88.7678 82.43 89.3978 82.64 90.2578 82.64C90.5578 82.64 90.8378 82.61 91.0978 82.55C91.3578 82.49 91.5978 82.45 91.8178 82.43C92.0978 82.41 92.3278 82.5 92.5078 82.7C92.6878 82.88 92.7778 83.29 92.7778 83.93C92.7778 84.41 92.6978 84.83 92.5378 85.19C92.3778 85.55 92.0978 85.81 91.6978 85.97C91.4378 86.07 91.0778 86.15 90.6178 86.21C90.1778 86.29 89.7978 86.33 89.4778 86.33ZM99.8067 86.33C98.5667 86.33 97.5367 86.1 96.7167 85.64C95.8967 85.18 95.2867 84.49 94.8867 83.57C94.5067 82.63 94.3167 81.47 94.3167 80.09V73.31C94.3167 72.55 94.5067 71.98 94.8867 71.6C95.2867 71.22 95.8467 71.03 96.5667 71.03C97.2867 71.03 97.8467 71.22 98.2467 71.6C98.6467 71.98 98.8467 72.55 98.8467 73.31V80.21C98.8467 81.09 99.0267 81.75 99.3867 82.19C99.7467 82.61 100.317 82.82 101.097 82.82C101.957 82.82 102.657 82.52 103.197 81.92C103.757 81.3 104.037 80.49 104.037 79.49V73.31C104.037 72.55 104.227 71.98 104.607 71.6C105.007 71.22 105.567 71.03 106.287 71.03C107.027 71.03 107.587 71.22 107.967 71.6C108.367 71.98 108.567 72.55 108.567 73.31V83.96C108.567 85.5 107.837 86.27 106.377 86.27C105.657 86.27 105.107 86.07 104.727 85.67C104.347 85.27 104.157 84.7 104.157 83.96V81.95L104.607 83.12C104.167 84.14 103.537 84.93 102.717 85.49C101.897 86.05 100.927 86.33 99.8067 86.33ZM114.352 86.27C113.612 86.27 113.042 86.07 112.642 85.67C112.262 85.27 112.072 84.7 112.072 83.96V73.31C112.072 72.57 112.262 72.01 112.642 71.63C113.042 71.23 113.592 71.03 114.292 71.03C115.012 71.03 115.562 71.23 115.942 71.63C116.322 72.01 116.512 72.57 116.512 73.31V75.02L116.182 74.03C116.642 73.05 117.322 72.3 118.222 71.78C119.142 71.24 120.182 70.97 121.342 70.97C122.522 70.97 123.492 71.2 124.252 71.66C125.012 72.1 125.582 72.78 125.962 73.7C126.342 74.6 126.532 75.75 126.532 77.15V83.96C126.532 84.7 126.332 85.27 125.932 85.67C125.552 86.07 124.992 86.27 124.252 86.27C123.532 86.27 122.972 86.07 122.572 85.67C122.192 85.27 122.002 84.7 122.002 83.96V77.36C122.002 76.34 121.812 75.61 121.432 75.17C121.072 74.71 120.512 74.48 119.752 74.48C118.792 74.48 118.022 74.78 117.442 75.38C116.882 75.98 116.602 76.78 116.602 77.78V83.96C116.602 85.5 115.852 86.27 114.352 86.27ZM128.594 91.64C128.054 91.66 127.624 91.57 127.304 91.37C126.984 91.17 126.764 90.91 126.644 90.59C126.524 90.29 126.494 89.98 126.554 89.66C126.594 89.34 126.724 89.06 126.944 88.82C127.164 88.58 127.464 88.44 127.844 88.4C128.624 88.34 129.184 88.12 129.524 87.74C129.884 87.38 130.064 86.82 130.064 86.06V73.31C130.064 72.57 130.264 72.01 130.664 71.63C131.064 71.23 131.624 71.03 132.344 71.03C133.064 71.03 133.614 71.23 133.994 71.63C134.394 72.01 134.594 72.57 134.594 73.31V85.64C134.594 86.96 134.374 88.05 133.934 88.91C133.514 89.77 132.864 90.42 131.984 90.86C131.104 91.32 129.974 91.58 128.594 91.64ZM132.314 68.57C131.494 68.57 130.854 68.38 130.394 68C129.954 67.6 129.734 67.04 129.734 66.32C129.734 65.58 129.954 65.02 130.394 64.64C130.854 64.24 131.494 64.04 132.314 64.04C133.154 64.04 133.794 64.24 134.234 64.64C134.674 65.02 134.894 65.58 134.894 66.32C134.894 67.04 134.674 67.6 134.234 68C133.794 68.38 133.154 68.57 132.314 68.57ZM143.547 86.33C142.307 86.33 141.277 86.1 140.457 85.64C139.637 85.18 139.027 84.49 138.627 83.57C138.247 82.63 138.057 81.47 138.057 80.09V73.31C138.057 72.55 138.247 71.98 138.627 71.6C139.027 71.22 139.587 71.03 140.307 71.03C141.027 71.03 141.587 71.22 141.987 71.6C142.387 71.98 142.587 72.55 142.587 73.31V80.21C142.587 81.09 142.767 81.75 143.127 82.19C143.487 82.61 144.057 82.82 144.837 82.82C145.697 82.82 146.397 82.52 146.937 81.92C147.497 81.3 147.777 80.49 147.777 79.49V73.31C147.777 72.55 147.967 71.98 148.347 71.6C148.747 71.22 149.307 71.03 150.027 71.03C150.767 71.03 151.327 71.22 151.707 71.6C152.107 71.98 152.307 72.55 152.307 73.31V83.96C152.307 85.5 151.577 86.27 150.117 86.27C149.397 86.27 148.847 86.07 148.467 85.67C148.087 85.27 147.897 84.7 147.897 83.96V81.95L148.347 83.12C147.907 84.14 147.277 84.93 146.457 85.49C145.637 86.05 144.667 86.33 143.547 86.33ZM158.092 86.27C157.352 86.27 156.782 86.07 156.382 85.67C156.002 85.27 155.812 84.7 155.812 83.96V66.89C155.812 66.13 156.002 65.56 156.382 65.18C156.782 64.78 157.352 64.58 158.092 64.58C158.812 64.58 159.362 64.78 159.742 65.18C160.142 65.56 160.342 66.13 160.342 66.89V77.36H160.402L164.752 72.53C165.192 72.03 165.592 71.66 165.952 71.42C166.332 71.16 166.832 71.03 167.452 71.03C168.072 71.03 168.542 71.19 168.862 71.51C169.202 71.83 169.372 72.22 169.372 72.68C169.392 73.12 169.202 73.57 168.802 74.03L164.212 79.16V77.45L169.312 83.33C169.692 83.79 169.852 84.25 169.792 84.71C169.752 85.17 169.552 85.55 169.192 85.85C168.832 86.13 168.372 86.27 167.812 86.27C167.132 86.27 166.582 86.14 166.162 85.88C165.762 85.62 165.352 85.22 164.932 84.68L160.402 79.64H160.342V83.96C160.342 85.5 159.592 86.27 158.092 86.27Z" fill="#1A1A1B"/>
<defs>
<clipPath id="clip0_18_234">
<rect width="426.283" height="508" fill="white" transform="translate(0 188)"/>
</clipPath>
</defs>
</svg>
